<?xml version="1.0" standalone="no"?>
<!DOCTYPE svg PUBLIC "-//W3C//DTD SVG 1.1//EN" "http://www.w3.org/Graphics/SVG/1.1/DTD/svg11.dtd" >
<svg>
<metadata>
Created by FontForge 20090914 at Wed Oct 23 02:42:17 2013
 By www-data
Copyright (c) Derek Vogelpohl, 2001. All rights reserved.
</metadata>
<defs>
<font id="Florencesans-Italic" horiz-adv-x="206" >
  <font-face 
    font-family="Florencesans"
    font-weight="400"
    font-style="italic"
    font-stretch="normal"
    units-per-em="1000"
    panose-1="2 0 5 6 2 0 0 9 0 4"
    ascent="800"
    descent="-200"
    x-height="525"
    cap-height="700"
    bbox="-80.999 -193.001 1188.25 878"
    underline-thickness="20"
    underline-position="-123"
    slope="-12"
    unicode-range="U+0020-U+2212"
  />
<missing-glyph horiz-adv-x="500" 
 />
    <glyph glyph-name=".notdef" horiz-adv-x="500" 
 />
    <glyph glyph-name="space" unicode=" " horiz-adv-x="414" 
 />
    <glyph glyph-name="exclam" unicode="!" horiz-adv-x="240" 
d="M310 700h-83l-91 -508h49zM191 61c3.33301 17.333 0.664062 31.833 -8.00293 43.5s-21 17.5 -37 17.5s-31.167 -5.83301 -45.5 -17.5s-23.166 -26.167 -26.499 -43.5s-0.666016 -31.833 8.00098 -43.5s21.334 -17.5 38.001 -17.5c16 -0 31 5.83301 45 17.5
s22.667 26.167 26 43.5z" />
    <glyph glyph-name="quotedbl" unicode="&#x22;" horiz-adv-x="439" 
d="M534 735h-117l-15 -240c0 -15.333 6 -23 18 -23c12.667 0 21 7.66699 25 23zM334 735h-116l-15 -240c0 -15.333 5.66699 -23 17 -23c12 0 20.667 7.66699 26 23z" />
    <glyph glyph-name="numbersign" unicode="#" horiz-adv-x="556" 
d="M556 297l15 70h-103l32 105h94l15 70h-88l29 105h-66l-30 -105h-100l30 105h-66l-30 -105h-111l-15 -70h105l-32 -105h-96l-15 -70h90l-30 -105h66l31 105h100l-31 -105h66l31 105h109zM433 472l-31 -105h-100l31 105h100z" />
    <glyph glyph-name="dollar" unicode="$" horiz-adv-x="655" 
d="M633 189c14 66 1.66602 114.997 -37.001 146.997c-27.333 21.333 -75.666 38 -144.999 50l51 240c34.667 -6 60.334 -17 77.001 -33c22 -20 30 -46.667 24 -80h83c5.33301 28 5.33301 53.667 0 77s-17.333 44.666 -36 63.999c-32 32.667 -75 53 -129 61l15 72h-83
l-15 -72c-57.333 -8 -109 -28.333 -155 -61c-52 -38 -84 -85 -96 -141c-14 -63.333 -3.66699 -111.666 31 -144.999c13.333 -11.333 31 -21.666 53 -30.999s49.333 -16.666 82 -21.999l-51 -242c-38.667 4 -68.334 14.333 -89.001 31c-26.667 20.667 -36 49 -28 85h-84
c-12 -59.333 2 -107.666 42 -144.999c33.333 -31.333 80 -51 140 -59l-15 -73h83l15 73c63.333 8 118.333 27.667 165 59c56 36.667 90 85 102 145zM370.999 399.997c-35.333 7.33301 -61.332 18 -77.999 32c-23.333 18.667 -31 45.667 -23 81c6 32 25.333 58.667 58 80
c12.667 8.66699 26.667 15.5 42 20.5s31.666 9.16699 48.999 12.5zM550 188.997c-14 -66 -68.999 -104.667 -164.999 -116l48 228c41.333 -8 70.666 -17.667 87.999 -29c27.333 -17.333 37 -45 29 -83z" />
    <glyph glyph-name="percent" unicode="%" horiz-adv-x="829" 
d="M801 157c10.667 48 3.33203 89.333 -22.001 124c-25.333 34 -60.666 51 -105.999 51c-46 0 -89.333 -17 -130 -51c-39.333 -34.667 -64 -76 -74 -124c-5.33301 -24 -6.33301 -46.333 -3 -67s11.666 -39.667 24.999 -57c24.667 -34 60.334 -51 107.001 -51
c46 0 88.667 17 128 51c41.333 34.667 66.333 76 75 124zM891.998 700h-84l-721 -700h83zM508.998 542c10 48.667 2.33301 90 -23 124s-60.666 51 -105.999 51c-47.333 0 -90.333 -17 -129 -51c-40.667 -34.667 -65.334 -76 -74.001 -124c-11.333 -48.667 -4 -90 22 -124
c24 -34 59.333 -51 106 -51c46 0 89 17 129 51c40 34.667 65 76 75 124zM734.998 157c-6 -28.667 -20.998 -53.335 -44.998 -74.002s-49.667 -31 -77 -31c-28 0 -49.333 10.333 -64 31c-15.333 20.667 -20 45.334 -14 74.001c3.33301 14.667 8.66602 28.334 15.999 41.001
s17 24 29 34c24 20 50 30 78 30c27.333 0 48.666 -10 63.999 -30c14.667 -20.667 19 -45.667 13 -75zM443 541.999c-6.66699 -29.333 -21.667 -54.001 -45 -74.001c-24.667 -20.667 -50.667 -31 -78 -31c-26.667 0 -47.667 10.333 -63 31c-15.333 21.333 -20 46 -14 74
c6 28.667 21.333 53.334 46 74.001c22.667 20.667 48 31 76 31s49.667 -10 65 -30c14.667 -20.667 19 -45.667 13 -75z" />
    <glyph glyph-name="ampersand" unicode="&#x26;" horiz-adv-x="633" 
d="M571 0l-48.001 119.003c12 14.667 23 29.667 33 45l59 95l-68 35l-58 -91l-76 188c25.333 14.667 46.333 27.667 63 39s29.334 20.666 38.001 27.999c15.333 14.667 28 30.5 38 47.5s17 35.833 21 56.5c10 43.333 2.66699 80 -22 110c-21.333 30 -53.333 45 -96 45
s-81.334 -15 -116.001 -45c-34 -30 -56 -66.667 -66 -110c-2 -12.667 -2.83301 -25.334 -2.5 -38.001s2.5 -25.667 6.5 -39c2 -8 11 -31 27 -69c-56 -33.333 -98 -63.333 -126 -90c-39.333 -38.667 -64.666 -82.334 -75.999 -131.001c-12 -57.333 -2.66699 -107.333 28 -150
c30.667 -42 74 -63 130 -63c66 0 129.667 23 191 69l21 -51h99zM489.999 561.003c-4.66699 -25.333 -21.666 -46.333 -50.999 -63l-55 -33l-24 58c-6 12 -7 25.333 -3 40c4 18.667 13.5 34.667 28.5 48s31.5 20 49.5 20c18.667 0 33.667 -6.83301 45 -20.5
s14.666 -30.167 9.99902 -49.5zM421 125.003c-45.333 -37.333 -93.001 -55.999 -143.001 -55.999c-33.333 0 -58.666 12.667 -75.999 38c-18 26 -23.333 56 -16 90c3.33301 16 9.83301 31.167 19.5 45.5s22.167 28.166 37.5 41.499c8 7.33301 19.667 15.833 35 25.5l55 34.5
z" />
    <glyph glyph-name="quotesingle" unicode="'" horiz-adv-x="240" 
d="M334 735h-116l-15 -240c0 -15.333 5.66699 -23 17 -23c12 0 20.667 7.66699 26 23z" />
    <glyph glyph-name="parenleft" unicode="(" horiz-adv-x="306" 
d="M226 -88c-11.333 34.667 -20.167 67.666 -26.5 98.999s-10.5 61.333 -12.5 90c-2 58.667 5.33301 127 22 205c9.33301 40 19.333 77 30 111s22.667 65.333 36 94s29.833 58.667 49.5 90s42.5 64.333 68.5 99h-50c-61.333 -62.667 -108.666 -124 -141.999 -184
c-16 -29.333 -30.333 -61.333 -43 -96s-23.334 -72.667 -32.001 -114c-8.66699 -40.667 -14 -78.5 -16 -113.5s-1.33301 -67.5 2 -97.5c3.33301 -29.333 10.333 -59.166 21 -89.499s25 -61.5 43 -93.5h50z" />
    <glyph glyph-name="parenright" unicode=")" horiz-adv-x="306" 
d="M309 306c8.66699 41.333 14.333 79.334 17 114.001s2 66.667 -2 96c-7.33301 60 -28.666 121.333 -63.999 184h-50c23.333 -70 36 -133 38 -189c2 -58 -5.33301 -126.333 -22 -205c-17.333 -80 -39.333 -148.333 -66 -205c-13.333 -28.667 -29.833 -58.667 -49.5 -90
s-42.167 -64.333 -67.5 -99h50c31.333 32 58.666 63.167 81.999 93.5s43 60.166 59 89.499c17.333 30 32 62.5 44 97.5s22.333 72.833 31 113.5z" />
    <glyph glyph-name="asterisk" unicode="*" horiz-adv-x="444" 
d="M471 416l-82 56l106 57l-21 62l-106 -58l25 114h-67l-24 -114l-82 58l-46 -62l82 -57l-106 -56l20 -62l106 58l-24 -115h66l25 115l81 -58z" />
    <glyph glyph-name="plus" unicode="+" horiz-adv-x="456" 
d="M442 227l15 70h-133l29 140h-66l-30 -140h-133l-15 -70h133l-29 -140h66l30 140h133z" />
    <glyph glyph-name="comma" unicode="," horiz-adv-x="240" 
d="M204 122h-117l-14 -239c0 -15.333 5.66699 -23 17 -23c12 0 20.667 7.66699 26 23z" />
    <glyph glyph-name="hyphen" unicode="-" horiz-adv-x="456" 
d="M442 227l15 70h-333l-15 -70h333z" />
    <glyph glyph-name="hyphen" unicode="&#xad;" horiz-adv-x="456" 
d="M442 227l15 70h-333l-15 -70h333z" />
    <glyph glyph-name="period" unicode="." horiz-adv-x="240" 
d="M191 61c3.33301 17.333 0.664062 31.833 -8.00293 43.5s-21 17.5 -37 17.5s-31.167 -5.83301 -45.5 -17.5s-23.166 -26.167 -26.499 -43.5s-0.666016 -31.833 8.00098 -43.5s21.334 -17.5 38.001 -17.5c16 -0 31 5.83301 45 17.5s22.667 26.167 26 43.5z" />
    <glyph glyph-name="slash" unicode="/" horiz-adv-x="416" 
d="M515 661l-71 30l-413 -740l71 -30z" />
    <glyph glyph-name="zero" unicode="0" horiz-adv-x="647" 
d="M681 350c20 94.667 13.335 177.331 -19.998 247.998c-36.667 79.333 -98.334 119 -185.001 119s-165.334 -39.667 -236.001 -119c-32 -35.333 -58.167 -73.666 -78.5 -114.999s-35.833 -85.666 -46.5 -132.999c-20 -96 -13.333 -179 20 -249
c36 -79.333 97.667 -119 185 -119c85.333 0 164 39.667 236 119c63.333 71.333 105 154.333 125 249zM598.002 349.997c-14.667 -70.667 -44.332 -132.667 -88.999 -186c-50 -62.667 -106.667 -94 -170 -94c-64 0 -108 31.333 -132 94c-20.667 52 -23.334 114 -8.00098 186
c14 70.667 43 132.667 87 186c50.667 62.667 108 94 172 94c62.667 0 106 -31.333 130 -94c20.667 -52.667 24 -114.667 10 -186z" />
    <glyph glyph-name="one" unicode="1" horiz-adv-x="647" 
d="M429 0l148 700h-83l-215 -186l41 -56l151 131l-125 -589h83z" />
    <glyph glyph-name="two" unicode="2" horiz-adv-x="647" 
d="M573 0l18.002 86.999h-392c32 42 88 85 168 129l128 72.5c32 18.333 53.667 31.833 65 40.5c66 50 106 108.333 120 175c15.333 66.667 -0.333984 119.667 -47.001 159c-39.333 36 -91.666 54 -156.999 54c-64.667 0 -124.334 -16.333 -179.001 -49
c-62 -38 -99.667 -89.667 -113 -155h83c8 40.667 32.667 71.334 74 92.001c16.667 8 34.167 14.167 52.5 18.5s38.166 6.5 59.499 6.5c45.333 0 81 -9 107 -27c34 -22.667 46.333 -55.667 37 -99c-12 -56.667 -59.333 -110 -142 -160l-114 -66l-114 -65
c-84 -59.333 -135 -130.333 -153 -213h499z" />
    <glyph glyph-name="three" unicode="3" horiz-adv-x="647" 
d="M622 210c18 87.333 -12 148.667 -90 184c70 28.667 112 75.334 126 140.001c13.333 62 -2 109 -46 141c-36 28 -85.333 42 -148 42c-50.667 0 -97 -9.33301 -139 -28c-50.667 -21.333 -87.667 -54 -111 -98l71 -30c26 46 79.333 69 160 69c39.333 0 70.666 -6 93.999 -18
c30.667 -16 42.667 -42 36 -78c-6.66699 -30.667 -30 -55.667 -70 -75c-32 -14.667 -65.667 -22 -101 -22h-50l-18 -87h50c44.667 0 82.667 -11.333 114 -34c36 -26.667 49 -62 39 -106c-10 -46.667 -37.667 -83 -83 -109c-37.333 -20.667 -80.666 -31 -129.999 -31
c-85.333 0 -136.333 27.333 -153 82l-80 -44c13.333 -42.667 41.333 -74.667 84 -96c36.667 -20 80.334 -30 131.001 -30c71.333 0 135.666 18.667 192.999 56c64.667 41.333 105 98.666 121 171.999z" />
    <glyph glyph-name="four" unicode="4" horiz-adv-x="647" 
d="M619 140l19 87h-83l100 473h-71l-478 -473l-19 -87h366l-30 -140h84l29 140h83zM472 227h-279l352 343z" />
    <glyph glyph-name="five" unicode="5" horiz-adv-x="647" 
d="M635 245c16 74.667 2.66797 137.001 -39.999 187.001c-42 50 -99 75 -171 75c-58 0 -113.667 -16.333 -167 -49l33 154h340l18 88h-422l-72 -340l72 -32c22 28.667 49.167 51.167 81.5 67.5s65.166 24.5 98.499 24.5c48 0 86.333 -16.333 115 -49
c31.333 -34.667 41.666 -76.667 30.999 -126c-11.333 -50 -39.333 -92 -84 -126c-42.667 -32.667 -88 -49 -136 -49c-36.667 0 -69 10 -97 30c-26 19.333 -42.667 46.333 -50 81l-86 -22c4 -26.667 11.833 -50.834 23.5 -72.501s27.834 -40.5 48.501 -56.5
c38.667 -32 86 -48 142 -48c70.667 0 138 25.333 202 76c64 50 104 112.333 120 187z" />
    <glyph glyph-name="six" unicode="6" horiz-adv-x="647" 
d="M651 247c16 74 2.33398 136.999 -40.999 188.999c-41.333 49.333 -98.333 74 -171 74c-83.333 0 -155.666 -33.667 -216.999 -101c22 60.667 52.667 111 92 151c46.667 46.667 97 70 151 70c56.667 0 98 -25.333 124 -76l75 51c-38 74.667 -98.333 112 -181 112
c-87.333 0 -165.666 -39.667 -234.999 -119c-32 -35.333 -58.333 -73.666 -79 -114.999s-36.334 -85.666 -47.001 -132.999c-20 -95.333 -13 -178.333 21 -249c35.333 -79.333 96.666 -119 183.999 -119c71.333 0 138.666 25 201.999 75
c65.333 51.333 106 114.666 122 189.999zM568.001 245.999c-12 -51.333 -39.666 -93.332 -82.999 -125.999c-44.667 -33.333 -91 -50 -139 -50c-44.667 0 -81.334 17.667 -110.001 53c-28.667 36.667 -38 77.667 -28 123c11.333 51.333 37 93.333 77 126
c42 34 87.333 51 136 51s87.667 -16.333 117 -49c30 -34.667 40 -77.334 30 -128.001z" />
    <glyph glyph-name="seven" unicode="7" horiz-adv-x="647" 
d="M707 612l18 88h-449l-18 -88h353l-470 -612h99z" />
    <glyph glyph-name="eight" unicode="8" horiz-adv-x="647" 
d="M634 210c18.667 86.667 -11.667 148.002 -91 184.002c34.667 13.333 62.667 31.666 84 54.999s35.666 51.666 42.999 84.999c13.333 62 -2 109 -46 141c-36 28 -85.333 42 -148 42s-118 -14 -166 -42c-56.667 -31.333 -91.667 -78.333 -105 -141
c-14 -66 8 -112.667 66 -140c-94 -36 -150.333 -97.333 -169 -184c-14.667 -72.667 1 -130 47 -172c43.333 -37.333 100.333 -56 171 -56s135.334 18.667 194.001 56c65.333 42.667 105.333 100 120 172zM586.999 534.002c-6.66699 -30.667 -30.335 -55.667 -71.002 -75
c-31.333 -14.667 -64.666 -22 -99.999 -22c-34.667 0 -64.667 7.33301 -90 22c-32 18.667 -44.667 43.667 -38 75c6.66699 36 29.334 62 68.001 78c28.667 12 62.667 18 102 18c38.667 0 69.667 -6 93 -18c31.333 -15.333 43.333 -41.333 36 -78zM550.998 210.002
c-8.66699 -46.667 -36.665 -82.999 -83.998 -108.999c-36.667 -20.667 -79.334 -31 -128.001 -31s-87.334 10.333 -116.001 31c-34.667 24.667 -47.334 61 -38.001 109c10 45.333 38.333 80.666 85 105.999c40.667 22.667 83.334 34 128.001 34c44 0 81.667 -11.333 113 -34
c36.667 -26.667 50 -62 40 -106z" />
    <glyph glyph-name="nine" unicode="9" horiz-adv-x="647" 
d="M673 350c20 94.667 13.333 177.333 -20 248c-36 79.333 -97.667 119 -185 119c-72.667 0 -140 -24.667 -202 -74c-65.333 -52.667 -106 -116 -122 -190c-14.667 -74 -1 -137 41 -189c41.333 -49.333 98.333 -74 171 -74c84.667 0 157 33.667 217 101
c-11.333 -30 -24.5 -57.667 -39.5 -83s-32.5 -48 -52.5 -68c-45.333 -46.667 -95.333 -70 -150 -70c-57.333 0 -99 25.333 -125 76l-75 -52c38.667 -74.667 99 -112 181 -112c86 0 164.667 39.667 236 119c63.333 71.333 105 154.333 125 249zM587 453.999
c-10 -49.333 -35.9971 -91.667 -77.9971 -127c-41.333 -33.333 -86.333 -50 -135 -50s-88 16.667 -118 50c-29.333 34 -39 76.333 -29 127c12 52 40 94 84 126c43.333 33.333 89.666 50 138.999 50c43.333 0 79.666 -17.667 108.999 -53
c29.333 -36.667 38.666 -77.667 27.999 -123z" />
    <glyph glyph-name="colon" unicode=":" horiz-adv-x="240" 
d="M257 376c4 17.333 1.66895 31.833 -6.99805 43.5s-21 17.5 -37 17.5c-16.667 0 -31.834 -5.83301 -45.501 -17.5s-22.5 -26.167 -26.5 -43.5c-3.33301 -17.333 -0.5 -31.833 8.5 -43.5s21.5 -17.5 37.5 -17.5c16.667 0 31.667 5.83301 45 17.5s21.666 26.167 24.999 43.5
zM191.002 61c3.33301 17.333 0.664062 31.833 -8.00293 43.5s-21 17.5 -37 17.5s-31.167 -5.83301 -45.5 -17.5s-23.166 -26.167 -26.499 -43.5s-0.666016 -31.833 8.00098 -43.5s21.334 -17.5 38.001 -17.5c16 -0 31 5.83301 45 17.5s22.667 26.167 26 43.5z" />
    <glyph glyph-name="semicolon" unicode=";" horiz-adv-x="240" 
d="M257 376c4 17.333 1.66895 31.833 -6.99805 43.5s-21 17.5 -37 17.5c-16.667 0 -31.834 -5.83301 -45.501 -17.5s-22.5 -26.167 -26.5 -43.5c-3.33301 -17.333 -0.5 -31.833 8.5 -43.5s21.5 -17.5 37.5 -17.5c16.667 0 31.667 5.83301 45 17.5s21.666 26.167 24.999 43.5
zM204.002 122h-117l-14 -239c0 -15.333 5.66699 -23 17 -23c12 0 20.667 7.66699 26 23z" />
    <glyph glyph-name="semicolon" unicode="&#x37e;" horiz-adv-x="240" 
d="M257 376c4 17.333 1.66895 31.833 -6.99805 43.5s-21 17.5 -37 17.5c-16.667 0 -31.834 -5.83301 -45.501 -17.5s-22.5 -26.167 -26.5 -43.5c-3.33301 -17.333 -0.5 -31.833 8.5 -43.5s21.5 -17.5 37.5 -17.5c16.667 0 31.667 5.83301 45 17.5s21.666 26.167 24.999 43.5
zM204.002 122h-117l-14 -239c0 -15.333 5.66699 -23 17 -23c12 0 20.667 7.66699 26 23z" />
    <glyph glyph-name="less" unicode="&#x3c;" horiz-adv-x="438" 
d="M396 95l-208 167l279 168l-23 58l-320 -191l-15 -70l239 -190z" />
    <glyph glyph-name="equal" unicode="=" horiz-adv-x="456" 
d="M458 306l15 70h-332l-15 -70h332zM425 149l15 70h-332l-15 -70h332z" />
    <glyph glyph-name="greater" unicode="&#x3e;" horiz-adv-x="438" 
d="M424 227l15 70l-237 191l-50 -58l210 -168l-281 -167l25 -58z" />
    <glyph glyph-name="question" unicode="?" horiz-adv-x="423" 
d="M479 556c8.66699 42.667 1.99902 80.333 -20.001 113c-21.333 32 -53.333 48 -96 48s-81 -16 -115 -48c-18.667 -16 -33.5 -33.5 -44.5 -52.5s-19.167 -39.167 -24.5 -60.5h83c5.33301 19.333 15.833 36.5 31.5 51.5s32.834 22.5 51.501 22.5s32.834 -7.5 42.501 -22.5
s12.167 -32.167 7.5 -51.5c-7.33301 -32 -27 -60.333 -59 -85l-45 -33l-45 -33c-33.333 -29.333 -54.333 -64.333 -63 -105c-0.666992 -2.66699 -2 -12.834 -4 -30.501s-5.33301 -43.5 -10 -77.5h50l15.5 52c4.33301 14.667 8.16602 26.667 11.499 36
c14.667 45.333 40.667 80.333 78 105l44.5 27.5l46.5 27.5c30.667 24.667 52 63.334 64 116.001zM223.999 60.999c3.33301 17.333 0.832031 31.833 -7.50098 43.5s-20.833 17.5 -37.5 17.5c-16 0 -31 -5.83301 -45 -17.5s-22.667 -26.167 -26 -43.5
s-0.666016 -31.833 8.00098 -43.5s21 -17.5 37 -17.5s31 5.83301 45 17.5s22.667 26.167 26 43.5z" />
    <glyph glyph-name="at" unicode="@" horiz-adv-x="988" 
d="M982 262c26 126.667 6.33496 233.999 -58.998 321.999c-66 88.667 -158.333 133 -277 133c-119.333 0 -230.666 -44.333 -333.999 -133c-104 -90 -169 -197.333 -195 -322c-26.667 -124.667 -7 -231.667 59 -321c65.333 -89.333 157.333 -134 276 -134
c39.333 0 81.666 6.66699 126.999 20l-2 58c-36.667 -10.667 -74 -16 -112 -16c-102.667 0 -182.334 38.667 -239.001 116s-73.334 169.666 -50.001 276.999c23.333 108.667 79.333 201.334 168 278.001c90 77.333 186.333 116 289 116c103.333 0 183 -38.333 239 -115
c58 -76.667 75.333 -169.667 52 -279c-5.33301 -24.667 -13.5 -48.167 -24.5 -70.5s-25.167 -43.166 -42.5 -62.499c-37.333 -45.333 -78 -68 -122 -68c-19.333 0 -33.333 8.33301 -42 25s-10.667 35.667 -6 57l0.5 3c0.333008 2 0.833008 4.66699 1.5 8l91 305h-63l-21 -71
c-21.333 56 -63 84 -125 84c-56 0 -109.333 -23.333 -160 -70c-49.333 -46 -80.333 -99 -93 -159c-12 -52 -6 -97 18 -135c24 -37.333 61 -56 111 -56c64.667 0 122.667 28 174 84c-8 -36 -3 -68 15 -96c18 -26.667 44.667 -40 80 -40c60 -0 117 28.333 171 85
c49.333 53.333 81 112.333 95 177zM662.002 274.999c-8 -42 -30.999 -78.999 -68.999 -110.999c-36.667 -30.667 -74.667 -46 -114 -46c-35.333 0 -62.333 13 -81 39c-18.667 24 -24.334 55 -17.001 93c9.33301 41.333 32.333 78 69 110c36.667 31.333 74.667 47 114 47
c34.667 0 61.667 -13 81 -39c9.33301 -12.667 15.5 -26.834 18.5 -42.501s2.5 -32.5 -1.5 -50.5z" />
    <glyph glyph-name="A" unicode="A" horiz-adv-x="612" 
d="M592 0l-92 700h-90l-390 -700h88l88 157h286l22 -157h88zM472 245h-227l183 327z" />
    <glyph glyph-name="B" unicode="B" horiz-adv-x="622" 
d="M611 197c16 77.333 -11.998 129.333 -83.998 156c72.667 28.667 116.667 78.667 132 150c12 56.667 1 104.334 -33 143.001c-34 36 -78.333 54 -133 54h-283l-149 -700h299c55.333 0 107.666 18.333 156.999 55c25.333 19.333 45.666 40.666 60.999 63.999
s26.333 49.333 33 78zM576.002 503c-7.33301 -32.667 -26.334 -59.333 -57.001 -80c-27.333 -19.333 -57.666 -29 -90.999 -29h-200l47 218h199c33.333 0 59.666 -9.33301 78.999 -28c22.667 -20.667 30.334 -47.667 23.001 -81zM528.001 197.001
c-6.66699 -32.667 -26.001 -59.667 -58.001 -81c-27.333 -19.333 -57.666 -29 -90.999 -29h-216l46 219h216c34 0 60.333 -9.66699 79 -29c23.333 -21.333 31.333 -48 24 -80z" />
    <glyph glyph-name="C" unicode="C" horiz-adv-x="689" 
d="M656 90l-47 60c-63.333 -53.333 -131.333 -80 -204 -80c-72 0 -129 27.333 -171 82c-40.667 54 -52.334 120 -35.001 198c16 76.667 55.667 142.667 119 198c63.333 54.667 132 82 206 82c72.667 0 129 -27 169 -81l73 61c-51.333 71.333 -126 107 -224 107
c-96 0 -186 -36 -270 -108c-84 -72.667 -136.333 -159 -157 -259c-21.333 -101.333 -5.66602 -188 47.001 -260s127.667 -108 225 -108c95.333 0 185 36 269 108z" />
    <glyph glyph-name="D" unicode="D" horiz-adv-x="696" 
d="M717 350c20.667 96 5.66699 178.332 -45 246.999c-50 68.667 -121 103 -213 103h-249l-149 -700h250c90.667 0 176 34 256 102c80 68.667 130 151.334 150 248.001zM634 349.999c-7.33301 -36.667 -20.166 -70.333 -38.499 -101s-42.833 -59 -73.5 -85
c-60.667 -51.333 -125 -77 -193 -77h-166l112 525h166c69.333 0 122.666 -25.667 159.999 -77c38 -50 49 -111.667 33 -185z" />
    <glyph glyph-name="E" unicode="E" horiz-adv-x="589" 
d="M527 0l18 87h-382l46 219h299l20 88h-300l47 218h382l18 88h-465l-149 -700h466z" />
    <glyph glyph-name="F" unicode="F" horiz-adv-x="559" 
d="M657 612l18 88h-465l-149 -700h83l65 306h299l20 88h-300l47 218h382z" />
    <glyph glyph-name="G" unicode="G" horiz-adv-x="735" 
d="M713 148l53 246h-292l-19 -88h208l-27 -130c-68 -70.667 -145 -106 -231 -106c-72 0 -129 27.333 -171 82c-40.667 54 -52.334 120 -35.001 198c16 76.667 55.667 142.667 119 198c63.333 54.667 132 82 206 82c42 0 79.667 -9.83301 113 -29.5
s58.666 -47.167 75.999 -82.5l79 50c-23.333 47.333 -56.833 84 -100.5 110s-93.5 39 -149.5 39c-96 0 -186 -36 -270 -108c-84 -72.667 -136.333 -159 -157 -259c-21.333 -101.333 -5.66602 -188 47.001 -260s127.667 -108 225 -108c58.667 0 116.834 14.667 174.501 44
s108.167 70 151.5 122z" />
    <glyph glyph-name="H" unicode="H" horiz-adv-x="655" 
d="M593 0l149 700h-83l-65 -306h-366l65 306h-83l-149 -700h83l65 306h366l-65 -306h83z" />
    <glyph glyph-name="I" unicode="I" 
d="M144 0l149 700h-83l-149 -700h83z" />
    <glyph glyph-name="J" unicode="J" horiz-adv-x="504" 
d="M497 219l101.998 481h-252l-18 -88h169l-84 -393c-9.33301 -41.333 -30.666 -76.333 -63.999 -105c-33.333 -29.333 -69.666 -44 -108.999 -44c-52 0 -87 23.333 -105 70l-83 -41c13.333 -36 34.833 -64.5 64.5 -85.5s64.5 -31.5 104.5 -31.5c62 0 119.667 23.333 173 70
c54 46 88 101.667 102 167z" />
    <glyph glyph-name="K" unicode="K" horiz-adv-x="584" 
d="M560 0l-172 424l321 276h-118l-364 -314l66 314h-83l-149 -700h83l56 262l116 99l145 -361h99z" />
    <glyph glyph-name="L" unicode="L" horiz-adv-x="476" 
d="M444 0l18 87h-299l130 613h-83l-149 -700h383z" />
    <glyph glyph-name="M" unicode="M" horiz-adv-x="785" 
d="M724 0l148 700h-134l-319 -572l-76 572h-133l-149 -700h83l125 590l79 -590h89l328 587l-125 -587h84z" />
    <glyph glyph-name="N" unicode="N" horiz-adv-x="655" 
d="M593 0l149 700h-83l-116 -543l-250 543h-83l-149 -700h83l116 542l250 -542h83z" />
    <glyph glyph-name="O" unicode="O" horiz-adv-x="780" 
d="M814 350c22 101.333 6.00195 187.999 -47.998 259.999c-51.333 71.333 -126 107 -224 107c-96.667 0 -186.667 -35.667 -270 -107c-82.667 -71.333 -135 -158 -157 -260c-10.667 -51.333 -12.334 -98.5 -5.00098 -141.5s24.666 -82.5 51.999 -118.5
c52 -72 127 -108 225 -108c95.333 0 185 36 269 108c83.333 72.667 136 159.334 158 260.001zM731.002 349.999c-17.333 -77.333 -57.668 -143.333 -121.001 -198s-131.666 -82 -204.999 -82c-72 0 -129 27.333 -171 82c-40.667 54 -52.334 120 -35.001 198
c16 76.667 55.667 142.667 119 198c63.333 54.667 132 82 206 82c72.667 0 129.334 -27.333 170.001 -82s53 -120.667 37 -198z" />
    <glyph glyph-name="P" unicode="P" horiz-adv-x="584" 
d="M659 503c12 56.667 1 104.333 -33 143c-34 36 -78.333 54 -133 54h-283l-149 -700h83l65 306h200c54 0 106.333 18.333 157 55c50 38 81 85.333 93 142zM576 502.999c-7.33301 -32.667 -26.334 -59.333 -57.001 -80c-27.333 -19.333 -57.666 -29 -90.999 -29h-200l47 218
h199c33.333 0 59.666 -9.33301 78.999 -28c22.667 -20.667 30.334 -47.667 23.001 -81z" />
    <glyph glyph-name="Q" unicode="Q" horiz-adv-x="780" 
d="M814 350c22 101.333 6.00098 188 -47.999 260c-51.333 71.333 -126 107 -224 107c-96.667 0 -186.667 -35.667 -270 -107c-82.667 -71.333 -135 -158 -157 -260c-20 -91.333 -8 -172.666 36 -243.999c45.333 -70 110 -110.333 194 -121l-34 -160h83l34 160
c45.333 5.33301 88.166 18.166 128.499 38.499s79.5 47.833 117.5 82.5c73.333 70.667 120 152 140 244zM731.001 350c-15.333 -70 -50 -130.666 -104 -181.999c-26.667 -26.667 -55 -47.834 -85 -63.501s-61.667 -26.167 -95 -31.5l22 102h-83l-22 -102
c-62.667 11.333 -109.334 43 -140.001 95c-32 52 -40.333 112.667 -25 182c16 76.667 55.667 142.667 119 198c63.333 54.667 132 82 206 82c72.667 0 129.334 -27.333 170.001 -82s53 -120.667 37 -198z" />
    <glyph glyph-name="R" unicode="R" horiz-adv-x="618" 
d="M619 0l-99.001 244.999c-19.333 45.333 -36.333 68.333 -51 69c46.667 12.667 87.334 35.667 122.001 69c35.333 34 58 74 68 120c12 56.667 1 104.334 -33 143.001c-34 36 -78.333 54 -133 54h-283l-149 -700h83l65 306h100c58 0 95.333 -20.333 112 -61l99 -245h99z
M575.999 502.999c-7.33301 -32.667 -26.334 -59.333 -57.001 -80c-27.333 -19.333 -57.666 -29 -90.999 -29h-200l47 218h199c33.333 0 59.666 -9.33301 78.999 -28c22.667 -20.667 30.334 -47.667 23.001 -81z" />
    <glyph glyph-name="S" unicode="S" horiz-adv-x="639" 
d="M626 189c16.667 82.667 -8.99805 138.998 -76.998 168.998l-99 22.5l-99 22.5c-71.333 19.333 -101 56 -89 110c8 38.667 33.667 69.334 77 92.001c17.333 8 35.333 14.167 54 18.5s38.667 6.5 60 6.5c40 0 74.333 -8.66699 103 -26c34 -20.667 47 -51 39 -91h83
c12.667 62.667 -4 113.667 -50 153c-41.333 34 -93.333 51 -156 51c-64 0 -123.333 -17 -178 -51c-64 -38.667 -102.333 -89.667 -115 -153c-18 -85.333 7.33301 -143 76 -173l98.5 -22l99.5 -22c71.333 -18 101 -53.667 89 -107c-8.66699 -42 -36.667 -73.667 -84 -95
c-36 -16 -77.333 -24 -124 -24c-45.333 0 -83 8 -113 24c-39.333 21.333 -54 53 -44 95h-83c-14 -66 4.66699 -118.333 56 -157c43.333 -33.333 98.666 -50 165.999 -50c34 0 66.167 4.16699 96.5 12.5s60.166 20.5 89.499 36.5c68.667 40.667 110 93.334 124 158.001z" />
    <glyph glyph-name="T" unicode="T" horiz-adv-x="572" 
d="M674 612l18 88h-515l-19 -88h216l-130 -612h83l131 612h216z" />
    <glyph glyph-name="U" unicode="U" horiz-adv-x="639" 
d="M641 262l93.001 438.001h-83l-93 -438c-10.667 -52 -38.334 -97.333 -83.001 -136c-44 -37.333 -91 -56 -141 -56c-52.667 0 -91.667 18.667 -117 56c-28 37.333 -36.333 82.666 -25 135.999l93 438h-83l-93 -438c-16 -77.333 -4 -143 36 -197c40 -55.333 97 -83 171 -83
c72 0 140.333 27.667 205 83c32 28 58 58.167 78 90.5s34 67.833 42 106.5z" />
    <glyph glyph-name="V" unicode="V" horiz-adv-x="612" 
d="M741 700h-88l-320 -572l-76 572h-88l93 -700h89z" />
    <glyph glyph-name="W" unicode="W" horiz-adv-x="890" 
d="M1018 700h-86l-264 -542l-31 542h-87l-263 -542l-32 542h-86l41 -700h87l263 542l31 -542h87z" />
    <glyph glyph-name="X" unicode="X" horiz-adv-x="620" 
d="M596 0l-160 350l309 350h-104l-240 -273l-125 273h-103l159 -350l-308 -350h103l240 273l126 -273h103z" />
    <glyph glyph-name="Y" unicode="Y" horiz-adv-x="612" 
d="M740 700h-102l-241 -273l-125 273h-103l166 -365l-71 -335h83l71 335z" />
    <glyph glyph-name="Z" unicode="Z" horiz-adv-x="639" 
d="M585 0l19 87h-419l531 525l18 88h-532l-18 -88h419l-531 -525l-19 -87h532z" />
    <glyph glyph-name="bracketleft" unicode="[" horiz-adv-x="323" 
d="M242 -88l19 88h-117l131 612h116l18 88h-199l-167 -788h199z" />
    <glyph glyph-name="backslash" unicode="\" horiz-adv-x="416" 
d="M364 -49l-98 740l-84 -30l98 -740z" />
    <glyph glyph-name="bracketright" unicode="]" horiz-adv-x="323" 
d="M242 -88l167 788h-199l-18 -88h116l-130 -612h-117l-18 -88h199z" />
    <glyph glyph-name="asciicircum" unicode="^" horiz-adv-x="460" 
d="M469 328l-68 319h-67l-203 -319l55 -29l162 255l54 -255z" />
    <glyph glyph-name="underscore" unicode="_" horiz-adv-x="436" 
d="M436 0v70h-436v-70h436z" />
    <glyph glyph-name="grave" unicode="`" horiz-adv-x="256" 
d="M321 595l-28 105h-83l61 -105h50z" />
    <glyph glyph-name="a" unicode="a" horiz-adv-x="634" 
d="M573 0l112.001 525h-83l-20 -95c-34 74.667 -92.667 112 -176 112c-71.333 0 -137 -28 -197 -84c-58.667 -54.667 -96 -120 -112 -196c-16.667 -74 -7.33398 -139 27.999 -195c36.667 -56.667 90.667 -85 162 -85c82 0 156.333 37.333 223 112l-20 -94h83zM546.001 262
c-10.667 -52 -38.332 -97.334 -82.999 -136.001c-44 -37.333 -91 -56 -141 -56c-52 0 -91.333 18.667 -118 56c-27.333 36.667 -35.333 82 -24 136c12 54 39.333 99.333 82 136c42.667 38 90 57 142 57c50 0 89 -19 117 -57c27.333 -37.333 35.666 -82.666 24.999 -135.999z
" />
    <glyph glyph-name="b" unicode="b" horiz-adv-x="634" 
d="M649 262c16 76 5.99902 141.333 -30.001 196c-35.333 56 -88.666 84 -159.999 84c-82.667 0 -157 -37.333 -223 -112l57 270h-83l-149 -700h83l20 94c35.333 -74.667 94 -112 176 -112c72 0 137.667 28.333 197 85c30 28 54.167 58 72.5 90s31.5 67 39.5 105z
M565.999 262c-10.667 -52 -38 -97.3311 -82 -135.998c-44 -37.333 -91.333 -56 -142 -56c-51.333 0 -90.333 18.667 -117 56c-28 37.333 -36.333 82.666 -25 135.999c12 53.333 39.667 98.666 83 135.999c42.667 38 89.667 57 141 57c50.667 0 90 -19 118 -57
c26.667 -38 34.667 -83.333 24 -136z" />
    <glyph glyph-name="c" unicode="c" horiz-adv-x="571" 
d="M538 93l-60 47c-48.667 -46.667 -100.667 -70 -156 -70c-52 0 -91.333 18.667 -118 56c-27.333 36.667 -35.333 82 -24 136c12 54 39.333 99.333 82 136c42.667 38 90 57 142 57c55.333 0 97.333 -23.333 126 -70l80 47c-17.333 34.667 -42.5 61.667 -75.5 81
s-70.167 29 -111.5 29c-74 0 -142.667 -27.333 -206 -82c-64 -54 -104 -120 -120 -198c-16.667 -76.667 -4.66699 -142.334 36 -197.001c40 -55.333 97 -83 171 -83c41.333 0 82.5 9.83301 123.5 29.5s77.833 46.834 110.5 81.501z" />
    <glyph glyph-name="d" unicode="d" horiz-adv-x="634" 
d="M573 0l149.001 700h-83l-57 -270c-34 74.667 -92.667 112 -176 112c-71.333 0 -137 -28 -197 -84c-58.667 -54.667 -96 -120 -112 -196c-16.667 -74 -7.33398 -139 27.999 -195c36.667 -56.667 90.667 -85 162 -85c82 0 156.333 37.333 223 112l-20 -94h83zM546.001 262
c-10.667 -52 -38.332 -97.334 -82.999 -136.001c-44 -37.333 -91 -56 -141 -56c-52 0 -91.333 18.667 -118 56c-27.333 36.667 -35.333 82 -24 136c12 54 39.333 99.333 82 136c42.667 38 90 57 142 57c50 0 89 -19 117 -57c27.333 -37.333 35.666 -82.666 24.999 -135.999z
" />
    <glyph glyph-name="e" unicode="e" horiz-adv-x="613" 
d="M629 262c16 77.333 3.66797 143.334 -36.999 198.001s-97 82 -169 82c-74 0 -142.667 -27.333 -206 -82c-64 -54 -104 -120 -120 -198c-16.667 -76.667 -4.66699 -142.334 36 -197.001c40 -55.333 97 -83 171 -83c41.333 0 82.5 9.83301 123.5 29.5
s77.833 46.834 110.5 81.501l-60 47c-48 -46.667 -100 -70 -156 -70c-42.667 0 -78 14 -106 42c-26 27.333 -39.667 63 -41 107h441c5.33301 13.333 9.66602 27.666 12.999 42.999zM549.001 306.001h-355.998c10 21.333 22.167 41 36.5 59s31.166 34 50.499 48
c40 28 81.333 42 124 42c41.333 0 75.666 -14 102.999 -42c28 -27.333 42 -63 42 -107z" />
    <glyph glyph-name="f" unicode="f" horiz-adv-x="311" 
d="M428 700c-16.667 11.333 -37 17 -61 17c-33.333 0 -65.333 -12.667 -96 -38c-29.333 -25.333 -48 -56.333 -56 -93l-23 -114h-50l-19 -87h50l-120 -560h83l120 560h83l19 87h-83l23 114c3.33301 12 9.83301 22.5 19.5 31.5s20.167 13.5 31.5 13.5
c9.33301 0 17.333 -3.33301 24 -10z" />
    <glyph glyph-name="g" unicode="g" horiz-adv-x="634" 
d="M591 87l94 437.999h-83l-20 -95c-16.667 34.667 -40 62 -70 82c-32 20 -67.333 30 -106 30c-71.333 0 -137 -28 -197 -84c-58.667 -54.667 -96 -120 -112 -196c-16.667 -74 -7.33398 -139 27.999 -195c38 -56.667 92 -85 162 -85c38 0 77.667 10.333 119 31
c38.667 20.667 73.334 47.667 104.001 81c-12 -57.333 -39.333 -104.666 -82 -141.999c-42 -38 -90 -57 -144 -57c-56 0 -98.333 23.333 -127 70l-75 -56c20 -34 45.167 -59.5 75.5 -76.5s66.5 -25.5 108.5 -25.5c72 0 140.333 27.667 205 83
c65.333 56 105.333 121.667 120 197zM546 261.999c-10.667 -52 -38.332 -97.334 -82.999 -136.001c-44 -37.333 -91 -56 -141 -56c-52 0 -91.333 18.667 -118 56c-27.333 36.667 -35.333 82 -24 136c12 54 39.333 99.333 82 136c42.667 38 90 57 142 57c50 0 89 -19 117 -57
c27.333 -37.333 35.666 -82.666 24.999 -135.999z" />
    <glyph glyph-name="h" unicode="h" horiz-adv-x="547" 
d="M493 0l68 315c12 60.667 4.66699 113 -22 157c-30 46.667 -73.333 70 -130 70c-60 0 -115.333 -25.667 -166 -77l50 235h-83l-149 -700h83l68 315c8 39.333 28 72.333 60 99c31.333 27.333 65.333 41 102 41c36 0 64.667 -13.667 86 -41c20 -28 26 -61 18 -99l-68 -315
h83z" />
    <glyph glyph-name="i" unicode="i" 
d="M300 656c4 17.333 1.66797 31.833 -6.99902 43.5s-21.334 17.5 -38.001 17.5c-16 0 -30.833 -5.83301 -44.5 -17.5s-22.5 -26.167 -26.5 -43.5c-3.33301 -17.333 -0.5 -31.833 8.5 -43.5s21.5 -17.5 37.5 -17.5s30.833 5.83301 44.5 17.5s22.167 26.167 25.5 43.5z
M144.001 0l112 525h-83l-112 -525h83z" />
    <glyph glyph-name="j" unicode="j" 
d="M300 656c4 17.333 1.66797 31.833 -6.99902 43.5s-21.334 17.5 -38.001 17.5c-16 0 -30.833 -5.83301 -44.5 -17.5s-22.5 -26.167 -26.5 -43.5c-3.33301 -17.333 -0.5 -31.833 8.5 -43.5s21.5 -17.5 37.5 -17.5s30.833 5.83301 44.5 17.5s22.167 26.167 25.5 43.5z
M131.001 -61l125 586h-83l-125 -586c-2.66699 -12 -9 -22.333 -19 -31s-20.667 -13 -32 -13c-9.33301 0 -17 3.33301 -23 10l-55 -79c16.667 -12.667 36.667 -19 60 -19c32.667 0 65 13 97 39c28 24.667 46.333 55.667 55 93z" />
    <glyph glyph-name="k" unicode="k" horiz-adv-x="518" 
d="M493 0l-128 318l240 207h-117l-284 -244l89 419h-83l-149 -700h83l34 157l113 98l104 -255h98z" />
    <glyph glyph-name="l" unicode="l" 
d="M144 0l149 700h-83l-149 -700h83z" />
    <glyph glyph-name="m" unicode="m" horiz-adv-x="829" 
d="M776 0l66.9971 314.999c13.333 60.667 6.33301 113.334 -21 158.001c-29.333 46 -72.666 69 -129.999 69c-70 0 -129 -34 -177 -102c-14 68 -51.667 102 -113 102c-59.333 0 -112.333 -25.667 -159 -77l13 60h-83l-112 -525h83l68 315c6.66699 36 24 68.333 52 97
c28.667 28.667 60 43 94 43s59 -14.667 75 -44c14.667 -26 18.334 -58 11.001 -96l-67 -315h83l68 315c6.66699 36 24 68.333 52 97c28.667 28.667 60 43 94 43s59 -14.667 75 -44c14.667 -26 18.334 -58 11.001 -96l-67 -315h83z" />
    <glyph glyph-name="n" unicode="n" horiz-adv-x="547" 
d="M493 0l68 315c12 60.667 4.66699 113 -22 157c-30 46.667 -73.333 70 -130 70c-60 0 -115.333 -25.667 -166 -77l13 60h-83l-112 -525h83l68 315c8 39.333 28 72.333 60 99c31.333 27.333 65.333 41 102 41c36 0 64.667 -13.667 86 -41c20 -28 26 -61 18 -99l-68 -315h83
z" />
    <glyph glyph-name="o" unicode="o" horiz-adv-x="613" 
d="M629 262c16 77.333 3.66699 143.333 -37 198s-97 82 -169 82c-74 0 -142.667 -27.333 -206 -82c-64 -54 -104 -120 -120 -198c-16.667 -76.667 -4.66699 -142.334 36 -197.001c40 -55.333 97 -83 171 -83c71.333 0 139.333 27.667 204 83
c64 54.667 104.333 120.334 121 197.001zM546 262c-10.667 -52 -38.332 -97.334 -82.999 -136.001c-44 -37.333 -91 -56 -141 -56c-52 0 -91.333 18.667 -118 56c-27.333 36.667 -35.333 82 -24 136c12 54 39.333 99.333 82 136c42.667 38 90 57 142 57c50 0 89 -19 117 -57
c27.333 -37.333 35.666 -82.666 24.999 -135.999z" />
    <glyph glyph-name="p" unicode="p" horiz-adv-x="634" 
d="M649 262c16 76 5.99902 141.333 -30.001 196c-35.333 56 -88.666 84 -159.999 84c-82.667 0 -157 -37.333 -223 -112l20 95h-83l-149 -700h83l57 269c35.333 -74.667 94 -112 176 -112c72 0 137.667 28.333 197 85c30 28 54.167 58 72.5 90s31.5 67 39.5 105z
M565.999 262c-10.667 -52 -38 -97.3311 -82 -135.998c-44 -37.333 -91.333 -56 -142 -56c-51.333 0 -90.333 18.667 -117 56c-28 37.333 -36.333 82.666 -25 135.999c12 53.333 39.667 98.666 83 135.999c42.667 38 89.667 57 141 57c50.667 0 90 -19 118 -57
c26.667 -38 34.667 -83.333 24 -136z" />
    <glyph glyph-name="q" unicode="q" horiz-adv-x="634" 
d="M535 -175l150.001 700h-83l-20 -95c-34 74.667 -92.667 112 -176 112c-71.333 0 -137 -28 -197 -84c-58.667 -54.667 -96 -120 -112 -196c-16.667 -74 -7.33398 -139 27.999 -195c36.667 -56.667 90.667 -85 162 -85c82 0 156.333 37.333 223 112l-58 -269h83z
M546.001 262c-10.667 -52 -38.332 -97.334 -82.999 -136.001c-44 -37.333 -91 -56 -141 -56c-52 0 -91.333 18.667 -118 56c-27.333 36.667 -35.333 82 -24 136c12 54 39.333 99.333 82 136c42.667 38 90 57 142 57c50 0 89 -19 117 -57
c27.333 -37.333 35.666 -82.666 24.999 -135.999z" />
    <glyph glyph-name="r" unicode="r" horiz-adv-x="358" 
d="M420 445l20.001 95c-5.33301 1.33301 -10.333 2 -15 2h-16c-60 0 -115.333 -25.667 -166 -77l13 60h-83l-112 -525h83l68 315c8 39.333 28 72.333 60 99c31.333 27.333 65.333 41 102 41c15.333 0 30.666 -3.33301 45.999 -10z" />
    <glyph glyph-name="s" unicode="s" horiz-adv-x="522" 
d="M500 144c14 64.667 -4.66504 108.664 -55.998 131.997c-4.66699 2 -54.667 13.667 -150 35c-53.333 11.333 -76.333 34.666 -69 69.999c6 26.667 24.333 46.334 55 59.001c22.667 10 48.667 15 78 15c15.333 0 28.666 -1.16699 39.999 -3.5s22 -6.16602 32 -11.499
c24.667 -13.333 34 -33 28 -59h83c11.333 50.667 -2.33398 91 -41.001 121c-30.667 26.667 -72 40 -124 40c-50 0 -97.333 -13.333 -142 -40c-50 -30.667 -80.667 -71 -92 -121c-12.667 -65.333 6 -109.666 56 -132.999c4 -1.33301 18.333 -4.83301 43 -10.5l106 -24.5
c54 -11.333 77 -34.333 69 -69c-10 -49.333 -56.667 -74 -140 -74c-32 0 -57.667 4.33301 -77 13c-27.333 12.667 -38 33 -32 61h-83c-11.333 -51.333 3.33398 -92.333 44.001 -123c35.333 -26 78.333 -39 129 -39c26.667 0 52 3.33301 76 10s47.333 16.334 70 29.001
c53.333 30.667 85.666 71.667 96.999 123z" />
    <glyph glyph-name="t" unicode="t" horiz-adv-x="347" 
d="M408 437l19 88h-100l26 122h-84l-25 -122h-100l-19 -88h100l-131 -612h84l130 612h100z" />
    <glyph glyph-name="u" unicode="u" horiz-adv-x="547" 
d="M486 0l112.001 525h-84l-67 -315c-8 -39.333 -28 -72.333 -60 -99c-32.667 -27.333 -67 -41 -103 -41c-36.667 0 -65 13.667 -85 41c-20 26.667 -26 59.667 -18 99l67 315h-83l-67 -315c-12.667 -59.333 -5.33398 -112 21.999 -158c29.333 -46.667 72.333 -70 129 -70
c60.667 0 116 25.667 166 77l-13 -59h84z" />
    <glyph glyph-name="v" unicode="v" horiz-adv-x="533" 
d="M625 525h-90l-245 -409l-69 409h-89l89 -525h90z" />
    <glyph glyph-name="w" unicode="w" horiz-adv-x="775" 
d="M868 525h-88l-200 -383l-37 383h-87l-201 -383l-35 383h-88l50 -525h87l201 383l37 -383h86z" />
    <glyph glyph-name="x" unicode="x" horiz-adv-x="503" 
d="M479 0l-120 262l232 263h-105l-163 -186l-84 186h-103l119 -263l-231 -262h103l163 185l84 -185h105z" />
    <glyph glyph-name="y" unicode="y" horiz-adv-x="533" 
d="M625 525h-90l-245 -409l-69 409h-89l89 -525l-48 -81c-9.33301 -16 -24 -24 -44 -24c-11.333 0 -24.333 3 -39 9l-19 -88c16 -6 29.333 -9 40 -9c57.333 0 102 27.667 134 83z" />
    <glyph glyph-name="z" unicode="z" horiz-adv-x="556" 
d="M502 0l19 87h-332l406 350l19 88h-449l-19 -88h332l-406 -350l-19 -87h449z" />
    <glyph glyph-name="braceleft" unicode="{" horiz-adv-x="381" 
d="M301 -88l17.9971 87.999h-33c-14.667 0 -26.667 6.33301 -36 19s-12.333 26.667 -9 42l29 140c5.33301 22.667 3 45.334 -7 68.001c-10 24.667 -25.333 37 -46 37c20.667 0 41.667 12.667 63 38c9.33301 11.333 17 22.5 23 33.5s10 22.167 12 33.5l30 140
c1.33301 8 4.5 15.667 9.5 23s10.833 13.833 17.5 19.5s13.834 10.167 21.501 13.5s15.167 5 22.5 5h34l18 88h-42c-34 0 -67.667 -15.667 -101 -47c-35.333 -32 -56.333 -66 -63 -102l-32 -149c-3.33301 -16 -11.666 -28.667 -24.999 -38s-28 -14 -44 -14h-25l-19 -88h26
c16 0 28.5 -4.66699 37.5 -14s11.833 -22 8.5 -38l-32 -149c-7.33301 -37.333 -0.666016 -71 20.001 -101c20.667 -32 48 -48 82 -48h42z" />
    <glyph glyph-name="bar" unicode="|" 
d="M126 -88l167 788h-83l-167 -788h83z" />
    <glyph glyph-name="braceright" unicode="}" horiz-adv-x="381" 
d="M375 262l19.0029 87.9971h-26c-16 0 -28.5 4.66699 -37.5 14s-11.833 22 -8.5 38l31 149c8 35.333 1.33301 69.333 -20 102c-21.333 31.333 -48.333 47 -81 47h-42l-18 -88h33c14.667 0 26.5 -6.33301 35.5 -19s12.167 -26.667 9.5 -42l-29 -140
c-5.33301 -22 -3 -44.333 7 -67c10 -25.333 25 -38 45 -38c-19.333 0 -40 -12.333 -62 -37c-9.33301 -11.333 -17 -22.666 -23 -33.999s-10 -22.666 -12 -33.999l-30 -140c-2 -7.33301 -5.33301 -14.666 -10 -21.999s-10.334 -13.833 -17.001 -19.5s-14 -10.334 -22 -14.001
s-15.667 -5.5 -23 -5.5h-33l-18 -88h42c33.333 0 66.666 16 99.999 48c34.667 30.667 56 64.334 64 101.001l32 149c3.33301 16 11.666 28.667 24.999 38s28 14 44 14h25z" />
    <glyph glyph-name="asciitilde" unicode="~" horiz-adv-x="458" 
d="M458 284l-56.001 27c-14.667 -25.333 -30 -38 -46 -38c-16.667 0 -40 7 -70 21c-29.333 14 -52.666 21 -69.999 21c-40 0 -74.667 -25.667 -104 -77l56 -26c14.667 24.667 29.667 37 45 37c18.667 0 42 -7 70 -21c30 -14 53.333 -21 70 -21c40 0 75 25.667 105 77z" />
    <glyph glyph-name="nonbreakingspace" unicode="&#xa0;" horiz-adv-x="414" 
 />
    <glyph glyph-name="exclamdown" unicode="&#xa1;" horiz-adv-x="240" 
d="M295 551c3.33301 17.333 0.832031 31.833 -7.50098 43.5s-20.833 17.5 -37.5 17.5c-16 0 -31.167 -5.83301 -45.5 -17.5s-23.166 -26.167 -26.499 -43.5s-0.5 -31.833 8.5 -43.5s21.5 -17.5 37.5 -17.5s31 5.83301 45 17.5s22.667 26.167 26 43.5zM142.999 -88l91 508
h-50l-125 -508h84z" />
    <glyph glyph-name="cent" unicode="&#xa2;" horiz-adv-x="600" 
d="M559 93l-59.999 47.002c-34.667 -34 -72.667 -55.667 -114 -65l80 375c38 -10 66.667 -31.667 86 -65l79 48c-32.667 60 -81.334 95.333 -146.001 106l19 91h-83l-19 -91c-66 -10.667 -126.333 -42.334 -181 -95.001c-53.333 -50.667 -87.666 -111.334 -102.999 -182.001
c-14.667 -68.667 -6.33398 -129.334 24.999 -182.001c33.333 -52.667 80.333 -84 141 -94l-20 -91h83l21 91c70.667 10.667 134.667 46.334 192 107.001zM302.001 75.002c-38.667 10 -67.666 32.6689 -86.999 68.002c-19.333 34 -24.333 73.667 -15 119c10 46 32 86 66 120
c16.667 17.333 34.667 31.666 54 42.999s39.666 19.666 60.999 24.999z" />
    <glyph glyph-name="sterling" unicode="&#xa3;" horiz-adv-x="604" 
d="M669 601c-12 36 -33.166 64.333 -63.499 85s-65.5 31 -105.5 31c-62 0 -119.667 -23.333 -173 -70c-52.667 -44.667 -86 -100 -100 -166l-19 -87h-83l-19 -88h83l-65 -306h416l18 87h-332l46 219h166l20 88h-167l19 87c8 40.667 29 75.667 63 105
c33.333 29.333 69.666 44 108.999 44c52 0 87 -23.333 105 -70z" />
    <glyph glyph-name="currency" unicode="&#xa4;" horiz-adv-x="757" 
d="M833 647c-50.667 46.667 -114.336 70.002 -191.003 70.002c-76 0 -149.333 -23.333 -220 -70c-71.333 -48 -126.666 -109 -165.999 -183h-71l-40 -70h82c-3.33301 -7.33301 -5.66602 -14.666 -6.99902 -21.999s-3 -14.666 -5 -21.999l-4 -22l-4 -22h-56l-40 -70h96
c8 -74 37.667 -135.333 89 -184c50.667 -46.667 114 -70 190 -70c62.667 0 125 17 187 51l23 107c-62 -46.667 -125.667 -70 -191 -70c-52 0 -97.333 15 -136 45c-37.333 31.333 -61.333 71.666 -72 120.999h307l38 70h-351c0.666992 7.33301 1.66699 14.666 3 21.999l4 22
c2 7.33301 3.83301 14.666 5.5 21.999s4.16699 14.666 7.5 21.999h381l39 70h-385c32 50 73 90 123 120c50.667 30.667 102.334 46 155.001 46c66 0 119.667 -23.333 161 -70z" />
    <glyph glyph-name="yen" unicode="&#xa5;" horiz-adv-x="695" 
d="M782 700h-103l-241 -273l-125 273h-103l148 -324h-180l-15 -70h208l-18 -87h-209l-15 -70h209l-32 -149h83l32 149h207l15 70h-207l18 87h207l15 70h-180z" />
    <glyph glyph-name="brokenbar" unicode="&#xa6;" 
d="M220 359l73 341h-83l-73 -341h83zM126 -88l73 342h-84l-72 -342h83z" />
    <glyph glyph-name="section" unicode="&#xa7;" horiz-adv-x="539" 
d="M494 83c12.667 56.667 0.665039 97.333 -36.002 122c48 26.667 77 64.667 87 114c13.333 65.333 -5.33398 109.333 -56.001 132c-2.66699 1.33301 -16.167 4.83301 -40.5 10.5l-108.5 24.5c-54 11.333 -77 34.666 -69 69.999c6 26 24 45.667 54 59
c22.667 10 48.667 15 78 15c30 0 53.667 -5 71 -15c26 -13.333 36 -33 30 -59h83c11.333 50 -2 90.333 -40 121c-32.667 26.667 -74.334 40 -125.001 40c-51.333 0 -98.333 -13.333 -141 -40c-26 -15.333 -46.667 -33.166 -62 -53.499s-25.666 -42.833 -30.999 -67.5
c-12 -57.333 -0.333008 -98 35 -122c-22.667 -13.333 -41.167 -29.666 -55.5 -48.999s-24.166 -41.333 -29.499 -66c-14 -64.667 4.33301 -109 55 -133c3.33301 -1.33301 17.333 -4.83301 42 -10.5l107 -23.5c54 -11.333 77 -34.333 69 -69
c-10 -49.333 -56.667 -74 -140 -74c-15.333 0 -29.666 1 -42.999 3s-24.666 5.33301 -33.999 10c-28 13.333 -38.667 33.666 -32 60.999h-83c-10.667 -51.333 3.66602 -92.333 42.999 -123c34.667 -26 78.334 -39 131.001 -39c51.333 0 100 13 146 39
c53.333 30 85 71 95 123zM461.998 318.999c-6 -26 -24 -45.666 -54 -58.999c-24 -10 -50 -15 -78 -15c-28.667 0 -53.667 5.33301 -75 16c-28.667 13.333 -40 32.666 -34 57.999c6 28 23.333 48.333 52 61c24 10 50 15 78 15c28.667 0 53.667 -5 75 -15
c29.333 -14.667 41.333 -35 36 -61z" />
    <glyph glyph-name="dieresis" unicode="&#xa8;" horiz-adv-x="373" 
d="M450 656c2.66699 12.667 0.833008 23.167 -5.5 31.5s-15.166 12.5 -26.499 12.5s-22 -4.16699 -32 -12.5s-16.333 -18.833 -19 -31.5c-3.33301 -12 -1.66602 -22.333 5.00098 -31s16 -13 28 -13c11.333 0 21.666 4.33301 30.999 13s15.666 19 18.999 31zM282.999 656
c3.33301 12.667 1.83301 23.167 -4.5 31.5s-15.166 12.5 -26.499 12.5c-12 0 -22.833 -4.16699 -32.5 -12.5s-16.167 -18.833 -19.5 -31.5c-2.66699 -12 -0.666992 -22.333 6 -31s16 -13 28 -13c11.333 0 21.666 4.33301 30.999 13s15.333 19 18 31z" />
    <glyph glyph-name="copyright" unicode="&#xa9;" horiz-adv-x="647" 
d="M644 276c16 74.667 3.66699 139.334 -37 194.001c-39.333 54 -94.666 81 -165.999 81c-72.667 0 -140.334 -27 -203.001 -81c-62.667 -54.667 -102 -119.334 -118 -194.001c-8.66699 -38.667 -9.83398 -74 -3.50098 -106s19.5 -62 39.5 -90c40 -53.333 96 -80 168 -80
c71.333 0 138.333 26.667 201 80c62.667 54.667 102.334 120 119.001 196zM598 276c-13.333 -63.333 -46.001 -117 -98.001 -161c-51.333 -44.667 -106.666 -67 -165.999 -67c-60.667 0 -107 22.333 -139 67c-32.667 43.333 -42.334 97 -29.001 161
c12.667 62 45 115.333 97 160c52.667 44.667 108.334 67 167.001 67s104.667 -22.333 138 -67c34 -46 44 -99.333 30 -160zM485.999 146l-22.999 29.999c-31.333 -26.667 -65.666 -40 -102.999 -40c-36.667 0 -64.667 13.667 -84 41c-20.667 26.667 -27 59.667 -19 99
c8 38.667 28.333 71.334 61 98.001c30.667 28 64.667 42 102 42s65.666 -13.667 84.999 -41l37 31c-26.667 35.333 -64 53 -112 53c-50 0 -95.333 -18 -136 -54c-41.333 -36 -67.333 -79 -78 -129c-10 -52 -2.33301 -95.667 23 -131s62.666 -53 111.999 -53
c48.667 0 93.667 18 135 54z" />
    <glyph glyph-name="ordfeminine" unicode="&#xaa;" horiz-adv-x="522" 
d="M525 306l84 394h-62l-15 -71c-26 56 -70 84 -132 84c-54 0 -103 -21 -147 -63c-44.667 -40.667 -73 -89.667 -85 -147c-12 -56 -4.33301 -104.667 23 -146c26 -42.667 66 -64 120 -64c62 0 118 28 168 84l-16 -71h62zM505 503c-8 -38.667 -28.665 -72.667 -61.998 -102
c-33.333 -28 -68.666 -42 -105.999 -42c-36.667 0 -66.334 14 -89.001 42c-19.333 28 -25 62 -17 102c9.33301 40.667 29.666 74.667 60.999 102c34 28 69.333 42 106 42c37.333 0 66.666 -14 87.999 -42c22 -28.667 28.333 -62.667 19 -102z" />
    <glyph glyph-name="guillemotleft" unicode="&#xab;" horiz-adv-x="679" 
d="M630 59l-179 149l243 150l-25 58l-281 -173l-15 -70l208 -173zM355 59l-178 149l242 150l-24 58l-282 -173l-15 -70l209 -173z" />
    <glyph glyph-name="logicalnot" unicode="&#xac;" horiz-adv-x="456" 
d="M423 140l34 157h-333l-15 -70h266l-18 -87h66z" />
    <glyph glyph-name="registered" unicode="&#xae;" horiz-adv-x="647" 
d="M644 276c16 74.667 3.66699 139.334 -37 194.001c-39.333 54 -94.666 81 -165.999 81c-72.667 0 -140.334 -27 -203.001 -81c-62.667 -54.667 -102 -119.334 -118 -194.001c-8.66699 -38.667 -9.83398 -74 -3.50098 -106s19.5 -62 39.5 -90c40 -53.333 96 -80 168 -80
c71.333 0 138.333 26.667 201 80c62.667 54.667 102.334 120 119.001 196zM479 353c-3.33301 -16.667 -12.5 -30.167 -27.5 -40.5s-30.833 -15.5 -47.5 -15.5h-100l24 110h100c16.667 0 30.167 -5 40.5 -15s13.833 -23 10.5 -39zM598 276
c-14 -65.333 -48.002 -120.33 -102.002 -164.997l-45 112c-7.33301 20 -15.666 31.667 -24.999 35c22.667 5.33301 42.834 16.666 60.501 33.999s29.167 37.666 34.5 60.999c6 27.333 0.333008 50.666 -17 69.999c-9.33301 9.33301 -19.333 16.333 -30 21s-23 7 -37 7h-141
l-75 -350h41l34 153h50c28 0 46.667 -10.333 56 -31l49 -122h31c-46.667 -35.333 -96 -53 -148 -53c-60.667 0 -107 22.333 -139 67c-32.667 43.333 -42.334 97 -29.001 161c12.667 62 45 115.333 97 160c52.667 44.667 108.334 67 167.001 67s104.667 -22.333 138 -67
c34 -46 44 -99.333 30 -160z" />
    <glyph glyph-name="macron" unicode="&#xaf;" horiz-adv-x="436" 
d="M436 630v70h-436v-70h436z" />
    <glyph glyph-name="macron" unicode="&#x2c9;" horiz-adv-x="436" 
d="M436 630v70h-436v-70h436z" />
    <glyph glyph-name="degree" unicode="&#xb0;" horiz-adv-x="306" 
d="M373 604c2.66699 13.333 2.83301 25.833 0.5 37.5s-6.66602 21.834 -12.999 30.501s-14.5 15.5 -24.5 20.5s-21.333 7.5 -34 7.5s-25.167 -2.5 -37.5 -7.5s-23.5 -11.833 -33.5 -20.5s-18.667 -18.834 -26 -30.501s-12.333 -24.167 -15 -37.5
c-3.33301 -13.333 -3.83301 -26 -1.5 -38s6.83301 -22.333 13.5 -31s15 -15.5 25 -20.5s21.333 -7.5 34 -7.5s25 2.5 37 7.5s23 11.833 33 20.5s18.667 19 26 31s12.666 24.667 15.999 38zM338.999 604c-3.33301 -17.333 -11.833 -32 -25.5 -44s-28.5 -18 -44.5 -18
c-16.667 0 -29.5 6 -38.5 18s-11.5 26.667 -7.5 44c3.33301 17.333 12 31.833 26 43.5s29.333 17.5 46 17.5c16 0 28.167 -5.83301 36.5 -17.5s10.833 -26.167 7.5 -43.5z" />
    <glyph glyph-name="plusminus" unicode="&#xb1;" horiz-adv-x="456" 
d="M461 315l15 70h-133l30 140h-67l-30 -140h-133l-14 -70h133l-30 -140h66l30 140h133zM394 0l15 70h-333l-15 -70h333z" />
    <glyph glyph-name="twosuperior" unicode="&#xb2;" horiz-adv-x="373" 
d="M385 350l9.99512 43.999h-196c13.333 20 41 41.333 83 64c26.667 14 48 25.833 64 35.5s27 16.5 33 20.5c32.667 25.333 52.334 54.666 59.001 87.999c6.66699 32.667 -0.666016 59.334 -21.999 80.001c-21.333 18 -47.666 27 -78.999 27c-34 0 -63.667 -8.33301 -89 -25
c-31.333 -18.667 -50.666 -44.667 -57.999 -78h42c4 20.667 16.333 36.334 37 47.001c14.667 8 33.334 12 56.001 12c22 0 40 -4.66699 54 -14c16.667 -11.333 22.667 -27.666 18 -48.999c-6 -28 -29.667 -54.667 -71 -80l-113 -65
c-21.333 -15.333 -38.5 -31.833 -51.5 -49.5s-21.5 -36.834 -25.5 -57.501h249z" />
    <glyph glyph-name="threesuperior" unicode="&#xb3;" horiz-adv-x="377" 
d="M413 455c8.66699 42 -6.66504 72.665 -45.998 91.998c35.333 14 56.333 37.333 63 70c7.33301 30.667 -0.333984 54.334 -23.001 71.001c-18 14 -42.667 21 -74 21c-60.667 0 -102.334 -21 -125.001 -63l35 -15c12.667 22.667 40 34 82 34c48.667 0 69.667 -16 63 -48
c-2.66699 -15.333 -14.334 -28 -35.001 -38c-14 -6.66699 -30.333 -10 -49 -10h-26l-9 -44h26c22.667 0 41 -5.66699 55 -17c18 -13.333 25 -31 21 -53c-5.33301 -24 -19.333 -42 -42 -54c-17.333 -10.667 -38.666 -16 -63.999 -16c-43.333 0 -69 13.667 -77 41l-41 -22
c14 -42 50 -63 108 -63c18 0 35 2.33301 51 7s31.667 11.667 47 21c32 20.667 52 49.334 60 86.001z" />
    <glyph glyph-name="acute" unicode="&#xb4;" horiz-adv-x="256" 
d="M343 700h-83l-72 -105h50z" />
    <glyph glyph-name="mu" unicode="&#xb5;" horiz-adv-x="556" 
d="M493 0l112 525h-83l-67 -315c-8 -39.333 -28 -72.333 -60 -99c-32.667 -27.333 -67 -41 -103 -41c-36.667 0 -65 13.667 -85 41c-20 26.667 -26 59.667 -18 99l67 315h-83l-149 -700h83l50 234c20 -51.333 59 -77 117 -77c57.333 0 107 25.667 149 77l-13 -59h83z" />
    <glyph glyph-name="mu" unicode="&#x3bc;" horiz-adv-x="556" 
d="M493 0l112 525h-83l-67 -315c-8 -39.333 -28 -72.333 -60 -99c-32.667 -27.333 -67 -41 -103 -41c-36.667 0 -65 13.667 -85 41c-20 26.667 -26 59.667 -18 99l67 315h-83l-149 -700h83l50 234c20 -51.333 59 -77 117 -77c57.333 0 107 25.667 149 77l-13 -59h83z" />
    <glyph glyph-name="paragraph" unicode="&#xb6;" horiz-adv-x="696" 
d="M766 612l18 88.002h-366c-55.333 0 -107.333 -18 -156 -54c-24.667 -19.333 -45 -40.833 -61 -64.5s-27 -49.834 -33 -78.501c-12 -56.667 -0.666992 -104.334 34 -143.001c34 -36 78 -54 132 -54l-102 -481h83l168 787h100l-168 -787h83l168 787h100z" />
    <glyph glyph-name="periodcentered" unicode="&#xb7;" horiz-adv-x="240" 
d="M234 262c3.33301 17.333 0.666016 32 -8.00098 44s-21 18 -37 18s-31.167 -6 -45.5 -18s-23.166 -26.667 -26.499 -44c-4 -17.333 -1.5 -31.833 7.5 -43.5s21.833 -17.5 38.5 -17.5c16 0 30.833 5.83301 44.5 17.5s22.5 26.167 26.5 43.5z" />
    <glyph glyph-name="cedilla" unicode="&#xb8;" horiz-adv-x="256" 
d="M171 -105c3.33301 16 1.66797 30.501 -4.99902 43.501s-17.667 21.167 -33 24.5l24 54h-34l-33 -78h25c11.333 0 20.166 -4.33301 26.499 -13s8.16602 -19 5.49902 -31c-2 -12 -8.16699 -22.333 -18.5 -31s-21.166 -13 -32.499 -13h-58l-14 -26h66
c9.33301 0 18.5 1.83301 27.5 5.5s17.167 8.66699 24.5 15s13.5 13.666 18.5 21.999s8.5 17.5 10.5 27.5z" />
    <glyph glyph-name="onesuperior" unicode="&#xb9;" horiz-adv-x="253" 
d="M266 350l74 350h-42l-107 -93l21 -28l75 66l-63 -295h42z" />
    <glyph glyph-name="ordmasculine" unicode="&#xba;" horiz-adv-x="522" 
d="M567 503c12 58 3 107.331 -27 147.998c-31.333 41.333 -74 62 -128 62c-55.333 0 -106.666 -20.667 -153.999 -62c-48 -41.333 -78 -90.666 -90 -147.999c-12 -59.333 -3 -109 27 -149c30 -40.667 72.667 -61 128 -61s106.666 20.333 153.999 61
c48 40.667 78 90.334 90 149.001zM505 502.998c-8 -38.667 -28.665 -72.667 -61.998 -102c-33.333 -28 -68.666 -42 -105.999 -42c-36.667 0 -66.334 14 -89.001 42c-19.333 28 -25 62 -17 102c9.33301 40.667 29.666 74.667 60.999 102c34 28 69.333 42 106 42
c37.333 0 66.666 -14 87.999 -42c22 -28.667 28.333 -62.667 19 -102z" />
    <glyph glyph-name="guillemotright" unicode="&#xbb;" horiz-adv-x="679" 
d="M654 173l15 70l-208 173l-49 -58l179 -150l-243 -149l25 -59zM380 173l15 70l-209 173l-49 -58l181 -150l-245 -149l25 -59z" />
    <glyph glyph-name="onequarter" unicode="&#xbc;" horiz-adv-x="456" 
d="M369 420l60 280h-34l-86 -74l17 -22l60 51l-50 -235h33zM465 332l7 35h-333l-7 -35h333zM346 56l7 35h-33l40 189h-28l-190 -189l-7 -35h145l-12 -56h33l12 56h33zM287 91h-110l139 137z" />
    <glyph glyph-name="onehalf" unicode="&#xbd;" horiz-adv-x="456" 
d="M369 420l60 280h-34l-86 -74l17 -22l60 51l-50 -235h33zM465 332l7 35h-333l-7 -35h333zM327 0l7.99707 35.0039h-156c13.333 17.333 35.333 34.666 66 51.999c21.333 11.333 38.333 20.666 51 27.999s21.334 12.666 26.001 15.999c26 19.333 42 42.666 48 69.999
c4.66699 26 -1.33301 47.333 -18 64c-15.333 14.667 -36 22 -62 22c-25.333 0 -49.333 -6.66699 -72 -20c-24.667 -14.667 -40 -35.334 -46 -62.001h34c3.33301 16.667 13.333 28.667 30 36c12.667 7.33301 27.334 11 44.001 11c16 0 30.333 -3.66699 43 -11
c12.667 -8.66699 17.334 -22 14.001 -40c-4.66699 -22.667 -23.667 -44 -57 -64l-45 -26l-44 -26c-34 -23.333 -54.667 -51.666 -62 -84.999h198z" />
    <glyph glyph-name="threequarters" unicode="&#xbe;" horiz-adv-x="456" 
d="M437 504c7.33301 34.667 -4.99902 59.002 -36.999 73.002c29.333 12 46.333 30.667 51 56c6 24.667 0.333008 43.667 -17 57c-15.333 11.333 -35.333 17 -60 17c-48.667 0 -82.334 -17 -101.001 -51l29 -12c10.667 18.667 32.334 28 65.001 28
c38.667 0 55.667 -13 51 -39c-1.33301 -6.66699 -4.5 -12.334 -9.5 -17.001s-11.167 -8.66699 -18.5 -12c-13.333 -6 -26.333 -9 -39 -9h-20l-8 -35h20c18 0 33 -4.66699 45 -14c14.667 -11.333 19.667 -25.333 15 -42c-2.66699 -18.667 -13.334 -33.334 -32.001 -44.001
c-16 -8 -33.333 -12 -52 -12c-34.667 0 -55 11 -61 33l-33 -17c8.66699 -34 37.334 -51 86.001 -51c28 0 53.667 7.66699 77 23c25.333 15.333 41.666 38 48.999 68zM465.001 332.002l7 35h-333l-7 -35h333zM346.001 56.002l7 35h-33l40 189h-28l-190 -189l-7 -35h145
l-12 -56h33l12 56h33zM287.001 91.002h-110l139 137z" />
    <glyph glyph-name="questiondown" unicode="&#xbf;" horiz-adv-x="423" 
d="M444 551c3.33301 17.333 0.831055 31.833 -7.50195 43.5s-20.5 17.5 -36.5 17.5c-16.667 0 -32 -5.83301 -46 -17.5s-22.667 -26.167 -26 -43.5s-0.666016 -31.833 8.00098 -43.5s21.334 -17.5 38.001 -17.5c16 0 30.833 5.83301 44.5 17.5s22.167 26.167 25.5 43.5z
M372.998 57h-83.001c-5.33301 -20 -15.833 -37.5 -31.5 -52.5s-32.834 -22.5 -51.501 -22.5c-18 0 -32 7.5 -42 22.5s-12.667 32.5 -8 52.5c6 30 25.667 58.333 59 85l45 32.5l44 32.5c34.667 29.333 56.334 64.333 65.001 105c0.666992 3.33301 2 13.666 4 30.999l9 77h-50
l-15.5 -51c-4.33301 -14.667 -7.83301 -27 -10.5 -37c-16 -45.333 -42.333 -80.333 -79 -105l-44.5 -27.5l-45.5 -27.5c-32 -25.333 -53.667 -63.666 -65 -114.999c-9.33301 -44.667 -2.66602 -82.667 20.001 -114c22 -32 53.667 -48 95 -48c42 0 80.667 16 116 48
c36 32 59 70 69 114z" />
    <glyph glyph-name="Agrave" unicode="&#xc0;" horiz-adv-x="612" 
d="M494 770l-27 105h-83l60 -105h50zM592 0l-92 700h-90l-390 -700h88l88 157h286l22 -157h88zM472 245h-227l183 327z" />
    <glyph glyph-name="Aacute" unicode="&#xc1;" horiz-adv-x="612" 
d="M600 875h-83l-73 -105h50zM592 0l-92 700h-90l-390 -700h88l88 157h286l22 -157h88zM472 245h-227l183 327z" />
    <glyph glyph-name="Acircumflex" unicode="&#xc2;" horiz-adv-x="612" 
d="M570 770l-44 105h-67l-89 -105h50l63 63l37 -63h50zM592 0l-92 700h-90l-390 -700h88l88 157h286l22 -157h88zM472 245h-227l183 327z" />
    <glyph glyph-name="Atilde" unicode="&#xc3;" horiz-adv-x="612" 
d="M612 847l-40.002 26c-14 -28 -26.333 -42 -37 -42c-13.333 0 -30.666 7.66699 -51.999 23c-20 16 -37 24 -51 24c-29.333 0 -56.666 -25.667 -81.999 -77l41 -27c14 28 26.667 42 38 42c12.667 0 29.334 -7.66699 50.001 -23c21.333 -15.333 38.666 -23 51.999 -23
c29.333 0 56.333 25.667 81 77zM591.998 0l-92 700h-90l-390 -700h88l88 157h286l22 -157h88zM471.998 245h-227l183 327z" />
    <glyph glyph-name="Adieresis" unicode="&#xc4;" horiz-adv-x="612" 
d="M605 814c2.66699 12 0.667969 22.167 -5.99902 30.5s-15.667 12.5 -27 12.5s-21.833 -4.16699 -31.5 -12.5s-16.167 -18.5 -19.5 -30.5c-2.66699 -12.667 -0.833984 -23.167 5.49902 -31.5s15.5 -12.5 27.5 -12.5c11.333 0 21.833 4.16699 31.5 12.5
s16.167 18.833 19.5 31.5zM438.001 814c3.33301 12 1.66797 22.167 -4.99902 30.5s-15.667 12.5 -27 12.5c-12 0 -22.833 -4.16699 -32.5 -12.5s-15.834 -18.5 -18.501 -30.5c-2.66699 -12.667 -0.833984 -23.167 5.49902 -31.5s15.5 -12.5 27.5 -12.5
c11.333 0 21.833 4.16699 31.5 12.5s15.834 18.833 18.501 31.5zM592.003 0l-92 700h-90l-390 -700h88l88 157h286l22 -157h88zM472.003 245h-227l183 327z" />
    <glyph glyph-name="Aring" unicode="&#xc5;" horiz-adv-x="612" 
d="M592 0l-89.001 682c30.667 19.333 49.334 45.666 56.001 78.999c5.33301 27.333 1 50 -13 68c-12.667 18.667 -32 28 -58 28c-25.333 0 -49.333 -9.33301 -72 -28c-10 -9.33301 -18.5 -19.666 -25.5 -30.999s-11.833 -23.666 -14.5 -36.999
c-7.33301 -34.667 0.666992 -61.334 24 -80.001l-380 -681h88l88 157h286l22 -157h88zM525.999 761c-3.33301 -17.333 -11.999 -31.833 -25.999 -43.5s-29 -17.5 -45 -17.5s-28.5 5.83301 -37.5 17.5s-11.833 26.167 -8.5 43.5s12.166 31.833 26.499 43.5
s29.5 17.5 45.5 17.5c16.667 0 29.167 -5.83301 37.5 -17.5s10.833 -26.167 7.5 -43.5zM472 245h-227l183 327z" />
    <glyph glyph-name="AE" unicode="&#xc6;" horiz-adv-x="948" 
d="M886 0l19 87h-300l47 219h216l19 88h-216l46 218h300l18 88h-382l-95 -443l-58 443h-90l-390 -700h88l88 157h286l22 -157h382zM472 245h-227l183 327z" />
    <glyph glyph-name="Ccedilla" unicode="&#xc7;" horiz-adv-x="689" 
d="M656 90l-46.999 60c-63.333 -53.333 -131.333 -80 -204 -80c-72 0 -129 27.333 -171 82c-40.667 54 -52.334 120 -35.001 198c16 76.667 55.667 142.667 119 198c63.333 54.667 132 82 206 82c72.667 0 129 -27 169 -81l73 61c-51.333 71.333 -126 107 -224 107
c-96 0 -186 -36 -270 -108c-84 -72.667 -136.333 -159 -157 -259c-20 -93.333 -7.66699 -175.333 37 -246c46 -70 112 -110 198 -120l-26 -63h24c11.333 0 20.333 -4.33301 27 -13s8.66699 -19 6 -31c-2.66699 -11.333 -9 -21.333 -19 -30s-20.667 -13 -32 -13h-58l-15 -27
h67c18 0 35 6.83301 51 20.5s26 30.167 30 49.5c3.33301 16.667 1.33301 31.5 -6 44.5s-18 21.167 -32 24.5l15 36c98.667 0 190 36 274 108z" />
    <glyph glyph-name="Egrave" unicode="&#xc8;" horiz-adv-x="589" 
d="M483 770l-27 105h-83l60 -105h50zM527 0l18 87h-382l46 219h299l20 88h-300l47 218h382l18 88h-465l-149 -700h466z" />
    <glyph glyph-name="Eacute" unicode="&#xc9;" horiz-adv-x="589" 
d="M589 875h-83l-73 -105h50zM527 0l18 87h-382l46 219h299l20 88h-300l47 218h382l18 88h-465l-149 -700h466z" />
    <glyph glyph-name="Ecircumflex" unicode="&#xca;" horiz-adv-x="589" 
d="M557 770l-43 105h-67l-89 -105h50l63 63l36 -63h50zM527 0l18 87h-382l46 219h299l20 88h-300l47 218h382l18 88h-465l-149 -700h466z" />
    <glyph glyph-name="Edieresis" unicode="&#xcb;" horiz-adv-x="589" 
d="M592 814c3.33301 12 1.66992 22.167 -4.99707 30.5s-16 12.5 -28 12.5c-11.333 0 -21.833 -4.16699 -31.5 -12.5s-15.834 -18.5 -18.501 -30.5c-2.66699 -12.667 -0.833984 -23.167 5.49902 -31.5s15.166 -12.5 26.499 -12.5s22 4.16699 32 12.5s16.333 18.833 19 31.5z
M426.004 814c2.66699 12 0.667969 22.167 -5.99902 30.5s-15.667 12.5 -27 12.5s-21.833 -4.16699 -31.5 -12.5s-15.834 -18.5 -18.501 -30.5c-2.66699 -12.667 -1 -23.167 5 -31.5s14.667 -12.5 26 -12.5c12 0 23 4.16699 33 12.5s16.333 18.833 19 31.5zM527.005 0l18 87
h-382l46 219h299l20 88h-300l47 218h382l18 88h-465l-149 -700h466z" />
    <glyph glyph-name="Igrave" unicode="&#xcc;" 
d="M291 770l-27 105h-83l60 -105h50zM144 0l149 700h-83l-149 -700h83z" />
    <glyph glyph-name="Iacute" unicode="&#xcd;" 
d="M397 875h-83l-73 -105h50zM144 0l149 700h-83l-149 -700h83z" />
    <glyph glyph-name="Icircumflex" unicode="&#xce;" 
d="M367 770l-44 105h-67l-89 -105h50l63 63l37 -63h50zM144 0l149 700h-83l-149 -700h83z" />
    <glyph glyph-name="Idieresis" unicode="&#xcf;" 
d="M401 814c2.66699 12 0.667969 22.167 -5.99902 30.5s-15.667 12.5 -27 12.5s-21.833 -4.16699 -31.5 -12.5s-15.834 -18.5 -18.501 -30.5c-3.33301 -12.667 -1.83301 -23.167 4.5 -31.5s15.5 -12.5 27.5 -12.5c11.333 0 21.833 4.16699 31.5 12.5
s16.167 18.833 19.5 31.5zM234.001 814c3.33301 12 1.66602 22.167 -5.00098 30.5s-15.667 12.5 -27 12.5c-12 0 -22.667 -4.16699 -32 -12.5s-15.666 -18.5 -18.999 -30.5c-2.66699 -12.667 -0.833984 -23.167 5.49902 -31.5s15.5 -12.5 27.5 -12.5
c11.333 0 21.833 4.16699 31.5 12.5s15.834 18.833 18.501 31.5zM144.001 0l149 700h-83l-149 -700h83z" />
    <glyph glyph-name="Eth" unicode="&#xd0;" horiz-adv-x="759" 
d="M780 350c20.667 95.333 5.33301 177.666 -46 246.999c-50 68.667 -120.667 103 -212 103h-249l-65 -306h-83l-15 -70h83l-69 -324h250c90 0 175 34 255 102c80.667 68.667 131 151.334 151 248.001zM696.999 350c-14.667 -72.667 -52.333 -134.666 -113 -185.999
s-124.667 -77 -192 -77h-166l50 237h167l15 70h-167l47 218h166c69.333 0 122.333 -25.667 159 -77c38.667 -50.667 50 -112.334 34 -185.001z" />
    <glyph glyph-name="Ntilde" unicode="&#xd1;" horiz-adv-x="655" 
d="M634 847l-41.001 26c-13.333 -28 -25.666 -42 -36.999 -42c-12.667 0 -29.667 7.66699 -51 23c-20 16 -37 24 -51 24c-29.333 0 -56.666 -25.667 -81.999 -77l41 -27c14 28 26.333 42 37 42c12.667 0 29.667 -7.66699 51 -23s38.666 -23 51.999 -23
c29.333 0 56.333 25.667 81 77zM592.999 0l149 700h-83l-116 -543l-250 543h-83l-149 -700h83l116 542l250 -542h83z" />
    <glyph glyph-name="Ograve" unicode="&#xd2;" horiz-adv-x="780" 
d="M578 770l-27 105h-83l60 -105h50zM814 350c22 101.333 6.00195 187.999 -47.998 259.999c-51.333 71.333 -126 107 -224 107c-96.667 0 -186.667 -35.667 -270 -107c-82.667 -71.333 -135 -158 -157 -260c-10.667 -51.333 -12.334 -98.5 -5.00098 -141.5
s24.666 -82.5 51.999 -118.5c52 -72 127 -108 225 -108c95.333 0 185 36 269 108c83.333 72.667 136 159.334 158 260.001zM731.002 349.999c-17.333 -77.333 -57.668 -143.333 -121.001 -198s-131.666 -82 -204.999 -82c-72 0 -129 27.333 -171 82
c-40.667 54 -52.334 120 -35.001 198c16 76.667 55.667 142.667 119 198c63.333 54.667 132 82 206 82c72.667 0 129.334 -27.333 170.001 -82s53 -120.667 37 -198z" />
    <glyph glyph-name="Oacute" unicode="&#xd3;" horiz-adv-x="780" 
d="M684 875h-83l-73 -105h50zM814 350c22 101.333 6.00195 187.999 -47.998 259.999c-51.333 71.333 -126 107 -224 107c-96.667 0 -186.667 -35.667 -270 -107c-82.667 -71.333 -135 -158 -157 -260c-10.667 -51.333 -12.334 -98.5 -5.00098 -141.5
s24.666 -82.5 51.999 -118.5c52 -72 127 -108 225 -108c95.333 0 185 36 269 108c83.333 72.667 136 159.334 158 260.001zM731.002 349.999c-17.333 -77.333 -57.668 -143.333 -121.001 -198s-131.666 -82 -204.999 -82c-72 0 -129 27.333 -171 82
c-40.667 54 -52.334 120 -35.001 198c16 76.667 55.667 142.667 119 198c63.333 54.667 132 82 206 82c72.667 0 129.334 -27.333 170.001 -82s53 -120.667 37 -198z" />
    <glyph glyph-name="Ocircumflex" unicode="&#xd4;" horiz-adv-x="780" 
d="M654 770l-44 105h-67l-89 -105h50l63 63l37 -63h50zM814 350c22 101.333 6.00195 187.999 -47.998 259.999c-51.333 71.333 -126 107 -224 107c-96.667 0 -186.667 -35.667 -270 -107c-82.667 -71.333 -135 -158 -157 -260
c-10.667 -51.333 -12.334 -98.5 -5.00098 -141.5s24.666 -82.5 51.999 -118.5c52 -72 127 -108 225 -108c95.333 0 185 36 269 108c83.333 72.667 136 159.334 158 260.001zM731.002 349.999c-17.333 -77.333 -57.668 -143.333 -121.001 -198s-131.666 -82 -204.999 -82
c-72 0 -129 27.333 -171 82c-40.667 54 -52.334 120 -35.001 198c16 76.667 55.667 142.667 119 198c63.333 54.667 132 82 206 82c72.667 0 129.334 -27.333 170.001 -82s53 -120.667 37 -198z" />
    <glyph glyph-name="Otilde" unicode="&#xd5;" horiz-adv-x="780" 
d="M696 847l-40.002 26c-14 -28 -26.333 -42 -37 -42c-13.333 0 -30.666 7.66699 -51.999 23c-20 16 -37 24 -51 24c-29.333 0 -56.666 -25.667 -81.999 -77l41 -27c14 28 26.667 42 38 42c12.667 0 29.334 -7.66699 50.001 -23c21.333 -15.333 38.666 -23 51.999 -23
c29.333 0 56.333 25.667 81 77zM813.998 350c22 101.333 6.00195 187.999 -47.998 259.999c-51.333 71.333 -126 107 -224 107c-96.667 0 -186.667 -35.667 -270 -107c-82.667 -71.333 -135 -158 -157 -260c-10.667 -51.333 -12.334 -98.5 -5.00098 -141.5
s24.666 -82.5 51.999 -118.5c52 -72 127 -108 225 -108c95.333 0 185 36 269 108c83.333 72.667 136 159.334 158 260.001zM731 349.999c-17.333 -77.333 -57.668 -143.333 -121.001 -198s-131.666 -82 -204.999 -82c-72 0 -129 27.333 -171 82
c-40.667 54 -52.334 120 -35.001 198c16 76.667 55.667 142.667 119 198c63.333 54.667 132 82 206 82c72.667 0 129.334 -27.333 170.001 -82s53 -120.667 37 -198z" />
    <glyph glyph-name="Odieresis" unicode="&#xd6;" horiz-adv-x="780" 
d="M688 814c2.66699 12 0.667969 22.167 -5.99902 30.5s-15.667 12.5 -27 12.5s-21.833 -4.16699 -31.5 -12.5s-15.834 -18.5 -18.501 -30.5c-3.33301 -12.667 -1.83301 -23.167 4.5 -31.5s15.5 -12.5 27.5 -12.5c11.333 0 21.833 4.16699 31.5 12.5
s16.167 18.833 19.5 31.5zM521.001 814c3.33301 12 1.66602 22.167 -5.00098 30.5s-15.667 12.5 -27 12.5c-12 0 -22.667 -4.16699 -32 -12.5s-15.666 -18.5 -18.999 -30.5c-2.66699 -12.667 -0.833984 -23.167 5.49902 -31.5s15.5 -12.5 27.5 -12.5
c11.333 0 21.833 4.16699 31.5 12.5s15.834 18.833 18.501 31.5zM814.001 350c22 101.333 6.00195 187.999 -47.998 259.999c-51.333 71.333 -126 107 -224 107c-96.667 0 -186.667 -35.667 -270 -107c-82.667 -71.333 -135 -158 -157 -260
c-10.667 -51.333 -12.334 -98.5 -5.00098 -141.5s24.666 -82.5 51.999 -118.5c52 -72 127 -108 225 -108c95.333 0 185 36 269 108c83.333 72.667 136 159.334 158 260.001zM731.003 349.999c-17.333 -77.333 -57.668 -143.333 -121.001 -198s-131.666 -82 -204.999 -82
c-72 0 -129 27.333 -171 82c-40.667 54 -52.334 120 -35.001 198c16 76.667 55.667 142.667 119 198c63.333 54.667 132 82 206 82c72.667 0 129.334 -27.333 170.001 -82s53 -120.667 37 -198z" />
    <glyph glyph-name="multiply" unicode="&#xd7;" horiz-adv-x="452" 
d="M421 139l-91 123l143 124l-37 50l-144 -124l-91 124l-58 -50l91 -124l-143 -123l37 -50l143 124l91 -124z" />
    <glyph glyph-name="Oslash" unicode="&#xd8;" horiz-adv-x="780" 
d="M903 674l-19 25.999l-117 -92c-54 72.667 -129 109 -225 109c-96.667 0 -186.667 -35.667 -270 -107c-82.667 -71.333 -135 -158 -157 -260c-18 -88 -8.33301 -165 29 -231l-119 -93l20 -26l116 92c54 -73.333 129.333 -110 226 -110c95.333 0 185 36 269 108
c83.333 72.667 136 159.334 158 260.001c18 86.667 8 163.667 -30 231zM693 549.999l-474.999 -372c-26.667 50 -33 107.333 -19 172c16 76.667 55.667 142.667 119 198c63.333 54.667 132 82 206 82c73.333 0 129.666 -26.667 168.999 -80zM731.001 349.999
c-17.333 -77.333 -57.667 -143.333 -121 -198s-131.666 -82 -204.999 -82c-72.667 0 -129.334 26.667 -170.001 80l475 372c28 -50 35 -107.333 21 -172z" />
    <glyph glyph-name="Ugrave" unicode="&#xd9;" horiz-adv-x="639" 
d="M507 770l-27 105h-83l61 -105h49zM641 262l93.001 438.001h-83l-93 -438c-10.667 -52 -38.334 -97.333 -83.001 -136c-44 -37.333 -91 -56 -141 -56c-52.667 0 -91.667 18.667 -117 56c-28 37.333 -36.333 82.666 -25 135.999l93 438h-83l-93 -438
c-16 -77.333 -4 -143 36 -197c40 -55.333 97 -83 171 -83c72 0 140.333 27.667 205 83c32 28 58 58.167 78 90.5s34 67.833 42 106.5z" />
    <glyph glyph-name="Uacute" unicode="&#xda;" horiz-adv-x="639" 
d="M613 875h-83l-72 -105h49zM641 262l93.001 438.001h-83l-93 -438c-10.667 -52 -38.334 -97.333 -83.001 -136c-44 -37.333 -91 -56 -141 -56c-52.667 0 -91.667 18.667 -117 56c-28 37.333 -36.333 82.666 -25 135.999l93 438h-83l-93 -438c-16 -77.333 -4 -143 36 -197
c40 -55.333 97 -83 171 -83c72 0 140.333 27.667 205 83c32 28 58 58.167 78 90.5s34 67.833 42 106.5z" />
    <glyph glyph-name="Ucircumflex" unicode="&#xdb;" horiz-adv-x="639" 
d="M583 770l-44 105h-67l-89 -105h50l63 63l37 -63h50zM641 262l93.001 438.001h-83l-93 -438c-10.667 -52 -38.334 -97.333 -83.001 -136c-44 -37.333 -91 -56 -141 -56c-52.667 0 -91.667 18.667 -117 56c-28 37.333 -36.333 82.666 -25 135.999l93 438h-83l-93 -438
c-16 -77.333 -4 -143 36 -197c40 -55.333 97 -83 171 -83c72 0 140.333 27.667 205 83c32 28 58 58.167 78 90.5s34 67.833 42 106.5z" />
    <glyph glyph-name="Udieresis" unicode="&#xdc;" horiz-adv-x="639" 
d="M617 814c2.66699 12 0.667969 22.167 -5.99902 30.5s-15.667 12.5 -27 12.5s-21.833 -4.16699 -31.5 -12.5s-15.834 -18.5 -18.501 -30.5c-3.33301 -12.667 -1.83301 -23.167 4.5 -31.5s15.5 -12.5 27.5 -12.5c11.333 0 22 4.16699 32 12.5s16.333 18.833 19 31.5z
M451.001 814c2.66699 12 0.667969 22.167 -5.99902 30.5s-15.667 12.5 -27 12.5s-21.833 -4.16699 -31.5 -12.5s-16.167 -18.5 -19.5 -30.5c-2.66699 -12.667 -0.833984 -23.167 5.49902 -31.5s15.5 -12.5 27.5 -12.5c11.333 0 21.833 4.16699 31.5 12.5
s16.167 18.833 19.5 31.5zM641.002 262l93.001 438.001h-83l-93 -438c-10.667 -52 -38.334 -97.333 -83.001 -136c-44 -37.333 -91 -56 -141 -56c-52.667 0 -91.667 18.667 -117 56c-28 37.333 -36.333 82.666 -25 135.999l93 438h-83l-93 -438c-16 -77.333 -4 -143 36 -197
c40 -55.333 97 -83 171 -83c72 0 140.333 27.667 205 83c32 28 58 58.167 78 90.5s34 67.833 42 106.5z" />
    <glyph glyph-name="Yacute" unicode="&#xdd;" horiz-adv-x="612" 
d="M600 875h-83l-73 -105h50zM740 700h-102l-241 -273l-125 273h-103l166 -365l-71 -335h83l71 335z" />
    <glyph glyph-name="Thorn" unicode="&#xde;" horiz-adv-x="584" 
d="M626 350c6.66699 28.667 7 54.834 1 78.501s-17.333 45.167 -34 64.5c-34.667 36 -79 54 -133 54h-199l32 153h-83l-149 -700h83l33 153h199c56 0 108.667 18.333 158 55c49.333 37.333 80 84.666 92 141.999zM543 350c-3.33301 -16 -9.66699 -30.832 -19 -44.499
s-22 -25.834 -38 -36.501c-27.333 -18.667 -57.666 -28 -90.999 -28h-200l47 218h200c32.667 0 59 -9.66699 79 -29c21.333 -21.333 28.666 -48 21.999 -80z" />
    <glyph glyph-name="germandbls" unicode="&#xdf;" horiz-adv-x="613" 
d="M605 210c8.66699 44.667 4.33203 82.667 -13.001 114c-14.667 29.333 -40.667 52.666 -78 69.999c70 26.667 112 73.334 126 140.001c14 62.667 0 110 -42 142c-35.333 27.333 -84.333 41 -147 41c-70 0 -133.667 -28.667 -191 -86
c-55.333 -56 -90.666 -120.667 -105.999 -194l-111 -525h83l111 525c11.333 51.333 34.333 95.333 69 132c38 40.667 80 61 126 61c96 0 137.667 -32 125 -96c-6.66699 -32 -30 -57 -70 -75c-32 -14.667 -65.333 -22 -100 -22h-50l-19 -87h50
c45.333 0 83.333 -11.333 114 -34c36 -26 49 -61.333 39 -106c-8.66699 -46.667 -36.334 -83 -83.001 -109c-36.667 -20.667 -79.667 -31 -129 -31c-20.667 0 -42.334 2.66699 -65.001 8l-37 -84c26.667 -8 54.334 -12 83.001 -12c70.667 0 135.334 18.667 194.001 56
c64.667 42 105 99.333 121 172z" />
    <glyph glyph-name="agrave" unicode="&#xe0;" horiz-adv-x="634" 
d="M458 595l-28 105h-83l62 -105h49zM573 0l112.001 525h-83l-20 -95c-34 74.667 -92.667 112 -176 112c-71.333 0 -137 -28 -197 -84c-58.667 -54.667 -96 -120 -112 -196c-16.667 -74 -7.33398 -139 27.999 -195c36.667 -56.667 90.667 -85 162 -85
c82 0 156.333 37.333 223 112l-20 -94h83zM546.001 262c-10.667 -52 -38.332 -97.334 -82.999 -136.001c-44 -37.333 -91 -56 -141 -56c-52 0 -91.333 18.667 -118 56c-27.333 36.667 -35.333 82 -24 136c12 54 39.333 99.333 82 136c42.667 38 90 57 142 57
c50 0 89 -19 117 -57c27.333 -37.333 35.666 -82.666 24.999 -135.999z" />
    <glyph glyph-name="aacute" unicode="&#xe1;" horiz-adv-x="634" 
d="M563 700h-83l-71 -105h49zM573 0l112.001 525h-83l-20 -95c-34 74.667 -92.667 112 -176 112c-71.333 0 -137 -28 -197 -84c-58.667 -54.667 -96 -120 -112 -196c-16.667 -74 -7.33398 -139 27.999 -195c36.667 -56.667 90.667 -85 162 -85c82 0 156.333 37.333 223 112
l-20 -94h83zM546.001 262c-10.667 -52 -38.332 -97.334 -82.999 -136.001c-44 -37.333 -91 -56 -141 -56c-52 0 -91.333 18.667 -118 56c-27.333 36.667 -35.333 82 -24 136c12 54 39.333 99.333 82 136c42.667 38 90 57 142 57c50 0 89 -19 117 -57
c27.333 -37.333 35.666 -82.666 24.999 -135.999z" />
    <glyph glyph-name="acircumflex" unicode="&#xe2;" horiz-adv-x="634" 
d="M534 595l-45 105h-66l-89 -105h50l63 63l37 -63h50zM573 0l112.001 525h-83l-20 -95c-34 74.667 -92.667 112 -176 112c-71.333 0 -137 -28 -197 -84c-58.667 -54.667 -96 -120 -112 -196c-16.667 -74 -7.33398 -139 27.999 -195c36.667 -56.667 90.667 -85 162 -85
c82 0 156.333 37.333 223 112l-20 -94h83zM546.001 262c-10.667 -52 -38.332 -97.334 -82.999 -136.001c-44 -37.333 -91 -56 -141 -56c-52 0 -91.333 18.667 -118 56c-27.333 36.667 -35.333 82 -24 136c12 54 39.333 99.333 82 136c42.667 38 90 57 142 57
c50 0 89 -19 117 -57c27.333 -37.333 35.666 -82.666 24.999 -135.999z" />
    <glyph glyph-name="atilde" unicode="&#xe3;" horiz-adv-x="634" 
d="M576 672l-40.002 26c-14 -28 -26.667 -42 -38 -42c-13.333 0 -30.333 7.66699 -51 23c-20 16 -37 24 -51 24c-29.333 0 -56.666 -25.667 -81.999 -77l41 -27c12.667 28 25.334 42 38.001 42s29.334 -7.66699 50.001 -23c21.333 -15.333 38.666 -23 51.999 -23
c29.333 0 56.333 25.667 81 77zM572.998 0l112.001 525h-83l-20 -95c-34 74.667 -92.667 112 -176 112c-71.333 0 -137 -28 -197 -84c-58.667 -54.667 -96 -120 -112 -196c-16.667 -74 -7.33398 -139 27.999 -195c36.667 -56.667 90.667 -85 162 -85
c82 0 156.333 37.333 223 112l-20 -94h83zM545.999 262c-10.667 -52 -38.332 -97.334 -82.999 -136.001c-44 -37.333 -91 -56 -141 -56c-52 0 -91.333 18.667 -118 56c-27.333 36.667 -35.333 82 -24 136c12 54 39.333 99.333 82 136c42.667 38 90 57 142 57
c50 0 89 -19 117 -57c27.333 -37.333 35.666 -82.666 24.999 -135.999z" />
    <glyph glyph-name="adieresis" unicode="&#xe4;" horiz-adv-x="634" 
d="M567 639c2.66699 12 0.832031 22.167 -5.50098 30.5s-15.166 12.5 -26.499 12.5s-22 -4.16699 -32 -12.5s-16.333 -18.5 -19 -30.5c-2.66699 -12.667 -0.833984 -23.167 5.49902 -31.5s15.5 -12.5 27.5 -12.5c11.333 0 21.833 4.16699 31.5 12.5
s15.834 18.833 18.501 31.5zM400.998 639c2.66699 12 0.833008 22.167 -5.5 30.5s-15.166 12.5 -26.499 12.5s-22 -4.16699 -32 -12.5s-16.333 -18.5 -19 -30.5c-3.33301 -12.667 -1.66602 -23.167 5.00098 -31.5s16 -12.5 28 -12.5c11.333 0 21.666 4.16699 30.999 12.5
s15.666 18.833 18.999 31.5zM572.997 0l112.001 525h-83l-20 -95c-34 74.667 -92.667 112 -176 112c-71.333 0 -137 -28 -197 -84c-58.667 -54.667 -96 -120 -112 -196c-16.667 -74 -7.33398 -139 27.999 -195c36.667 -56.667 90.667 -85 162 -85
c82 0 156.333 37.333 223 112l-20 -94h83zM545.998 262c-10.667 -52 -38.332 -97.334 -82.999 -136.001c-44 -37.333 -91 -56 -141 -56c-52 0 -91.333 18.667 -118 56c-27.333 36.667 -35.333 82 -24 136c12 54 39.333 99.333 82 136c42.667 38 90 57 142 57
c50 0 89 -19 117 -57c27.333 -37.333 35.666 -82.666 24.999 -135.999z" />
    <glyph glyph-name="aring" unicode="&#xe5;" horiz-adv-x="634" 
d="M545 691c5.33301 26.667 1.16992 49.334 -12.4971 68.001s-33.167 28 -58.5 28c-12.667 0 -25.167 -2.5 -37.5 -7.5s-23.5 -11.833 -33.5 -20.5s-18.667 -18.834 -26 -30.501s-12.333 -24.167 -15 -37.5s-2.83398 -25.833 -0.500977 -37.5
s6.66602 -21.834 12.999 -30.501s14.666 -15.5 24.999 -20.5s21.833 -7.5 34.5 -7.5s25 2.5 37 7.5s23 11.833 33 20.5s18.667 18.834 26 30.501s12.333 24.167 15 37.5zM573.004 0l112.001 525h-83l-20 -95c-34 74.667 -92.667 112 -176 112c-71.333 0 -137 -28 -197 -84
c-58.667 -54.667 -96 -120 -112 -196c-16.667 -74 -7.33398 -139 27.999 -195c36.667 -56.667 90.667 -85 162 -85c82 0 156.333 37.333 223 112l-20 -94h83zM512.005 691c-3.33301 -17.333 -11.998 -31.833 -25.998 -43.5s-29 -17.5 -45 -17.5
c-16.667 0 -29.334 5.83301 -38.001 17.5s-11.334 26.167 -8.00098 43.5s12 31.833 26 43.5s29.333 17.5 46 17.5s29.167 -5.83301 37.5 -17.5s10.833 -26.167 7.5 -43.5zM546.007 262c-10.667 -52 -38.332 -97.334 -82.999 -136.001c-44 -37.333 -91 -56 -141 -56
c-52 0 -91.333 18.667 -118 56c-27.333 36.667 -35.333 82 -24 136c12 54 39.333 99.333 82 136c42.667 38 90 57 142 57c50 0 89 -19 117 -57c27.333 -37.333 35.666 -82.666 24.999 -135.999z" />
    <glyph glyph-name="ae" unicode="&#xe6;" horiz-adv-x="1062" 
d="M1078 262c16 74.667 6.33594 139.667 -28.9971 195c-36 56.667 -89 85 -159 85c-85.333 0 -160.333 -37.333 -225 -112l20 95h-83l-20 -95c-34 74.667 -92.667 112 -176 112c-71.333 0 -137 -28 -197 -84c-58.667 -54.667 -96 -120 -112 -196
c-16.667 -74 -7.33398 -139 27.999 -195c38 -56.667 92 -85 162 -85c83.333 0 157.666 37.333 222.999 112l-20 -94h83l20 94c33.333 -74.667 90.666 -112 171.999 -112c78.667 0 152.667 37 222 111l-60 47c-48.667 -46.667 -100.667 -70 -156 -70
c-42.667 0 -78 14 -106 42c-26 27.333 -39.667 63 -41 107h441c3.33301 7.33301 5.83301 14.5 7.5 21.5s3.5 14.167 5.5 21.5zM998.003 306h-355.999c19.333 43.333 48.333 79 87 107c40 28 81.333 42 124 42c41.333 0 75.666 -14 102.999 -42c28 -27.333 42 -63 42 -107z
M546.004 262c-10.667 -52 -38.332 -97.334 -82.999 -136.001c-44 -37.333 -91 -56 -141 -56c-52 0 -91.333 18.667 -118 56c-27.333 36.667 -35.333 82 -24 136c12 54 39.333 99.333 82 136c42.667 38 90 57 142 57c50 0 89 -19 117 -57
c27.333 -37.333 35.666 -82.666 24.999 -135.999z" />
    <glyph glyph-name="ccedilla" unicode="&#xe7;" horiz-adv-x="571" 
d="M538 93l-60.002 47c-48.667 -46.667 -100.667 -70 -156 -70c-52 0 -91.333 18.667 -118 56c-27.333 36.667 -35.333 82 -24 136c12 54 39.333 99.333 82 136c42.667 38 90 57 142 57c55.333 0 97.333 -23.333 126 -70l80 47c-17.333 34.667 -42.5 61.667 -75.5 81
s-70.167 29 -111.5 29c-74 0 -142.667 -27.333 -206 -82c-64 -54 -104 -120 -120 -198c-15.333 -70 -6.66602 -131 26.001 -183c32 -52.667 80 -84 144 -94l-26 -64h24c11.333 0 20.333 -4.33301 27 -13s8.33398 -19 5.00098 -31c-2 -11.333 -8 -21.333 -18 -30
s-20.667 -13 -32 -13h-58l-15 -27h67c18 0 35 6.83301 51 20.5s26 30.167 30 49.5c3.33301 16.667 1.33301 31.5 -6 44.5s-18.333 21.167 -33 24.5l16 36c89.333 0 169 37 239 111z" />
    <glyph glyph-name="egrave" unicode="&#xe8;" horiz-adv-x="613" 
d="M458 595l-28 105h-83l62 -105h49zM629 262c16 77.333 3.66797 143.334 -36.999 198.001s-97 82 -169 82c-74 0 -142.667 -27.333 -206 -82c-64 -54 -104 -120 -120 -198c-16.667 -76.667 -4.66699 -142.334 36 -197.001c40 -55.333 97 -83 171 -83
c41.333 0 82.5 9.83301 123.5 29.5s77.833 46.834 110.5 81.501l-60 47c-48 -46.667 -100 -70 -156 -70c-42.667 0 -78 14 -106 42c-26 27.333 -39.667 63 -41 107h441c5.33301 13.333 9.66602 27.666 12.999 42.999zM549.001 306.001h-355.998c10 21.333 22.167 41 36.5 59
s31.166 34 50.499 48c40 28 81.333 42 124 42c41.333 0 75.666 -14 102.999 -42c28 -27.333 42 -63 42 -107z" />
    <glyph glyph-name="eacute" unicode="&#xe9;" horiz-adv-x="613" 
d="M563 700h-83l-71 -105h49zM629 262c16 77.333 3.66797 143.334 -36.999 198.001s-97 82 -169 82c-74 0 -142.667 -27.333 -206 -82c-64 -54 -104 -120 -120 -198c-16.667 -76.667 -4.66699 -142.334 36 -197.001c40 -55.333 97 -83 171 -83
c41.333 0 82.5 9.83301 123.5 29.5s77.833 46.834 110.5 81.501l-60 47c-48 -46.667 -100 -70 -156 -70c-42.667 0 -78 14 -106 42c-26 27.333 -39.667 63 -41 107h441c5.33301 13.333 9.66602 27.666 12.999 42.999zM549.001 306.001h-355.998c10 21.333 22.167 41 36.5 59
s31.166 34 50.499 48c40 28 81.333 42 124 42c41.333 0 75.666 -14 102.999 -42c28 -27.333 42 -63 42 -107z" />
    <glyph glyph-name="ecircumflex" unicode="&#xea;" horiz-adv-x="613" 
d="M534 595l-45 105h-66l-89 -105h50l63 63l37 -63h50zM629 262c16 77.333 3.66797 143.334 -36.999 198.001s-97 82 -169 82c-74 0 -142.667 -27.333 -206 -82c-64 -54 -104 -120 -120 -198c-16.667 -76.667 -4.66699 -142.334 36 -197.001c40 -55.333 97 -83 171 -83
c41.333 0 82.5 9.83301 123.5 29.5s77.833 46.834 110.5 81.501l-60 47c-48 -46.667 -100 -70 -156 -70c-42.667 0 -78 14 -106 42c-26 27.333 -39.667 63 -41 107h441c5.33301 13.333 9.66602 27.666 12.999 42.999zM549.001 306.001h-355.998c10 21.333 22.167 41 36.5 59
s31.166 34 50.499 48c40 28 81.333 42 124 42c41.333 0 75.666 -14 102.999 -42c28 -27.333 42 -63 42 -107z" />
    <glyph glyph-name="edieresis" unicode="&#xeb;" horiz-adv-x="613" 
d="M567 639c2.66699 12 0.832031 22.167 -5.50098 30.5s-15.166 12.5 -26.499 12.5s-22 -4.16699 -32 -12.5s-16.333 -18.5 -19 -30.5c-2.66699 -12.667 -0.833984 -23.167 5.49902 -31.5s15.5 -12.5 27.5 -12.5c11.333 0 21.833 4.16699 31.5 12.5
s15.834 18.833 18.501 31.5zM400.998 639c2.66699 12 0.833008 22.167 -5.5 30.5s-15.166 12.5 -26.499 12.5s-22 -4.16699 -32 -12.5s-16.333 -18.5 -19 -30.5c-3.33301 -12.667 -1.66602 -23.167 5.00098 -31.5s16 -12.5 28 -12.5c11.333 0 21.666 4.16699 30.999 12.5
s15.666 18.833 18.999 31.5zM628.997 262c16 77.333 3.66797 143.334 -36.999 198.001s-97 82 -169 82c-74 0 -142.667 -27.333 -206 -82c-64 -54 -104 -120 -120 -198c-16.667 -76.667 -4.66699 -142.334 36 -197.001c40 -55.333 97 -83 171 -83
c41.333 0 82.5 9.83301 123.5 29.5s77.833 46.834 110.5 81.501l-60 47c-48 -46.667 -100 -70 -156 -70c-42.667 0 -78 14 -106 42c-26 27.333 -39.667 63 -41 107h441c5.33301 13.333 9.66602 27.666 12.999 42.999zM548.998 306.001h-355.998c10 21.333 22.167 41 36.5 59
s31.166 34 50.499 48c40 28 81.333 42 124 42c41.333 0 75.666 -14 102.999 -42c28 -27.333 42 -63 42 -107z" />
    <glyph glyph-name="igrave" unicode="&#xec;" 
d="M255 595l-28 105h-84l62 -105h50zM144 0l112 525h-83l-112 -525h83z" />
    <glyph glyph-name="iacute" unicode="&#xed;" 
d="M360 700h-84l-71 -105h50zM144 0l112 525h-83l-112 -525h83z" />
    <glyph glyph-name="icircumflex" unicode="&#xee;" 
d="M330 595l-45 105h-66l-89 -105h50l63 63l37 -63h50zM144 0l112 525h-83l-112 -525h83z" />
    <glyph glyph-name="idieresis" unicode="&#xef;" 
d="M363 639c2.66699 12 0.999023 22.167 -5.00098 30.5s-14.667 12.5 -26 12.5c-12 0 -23 -4.16699 -33 -12.5s-16.333 -18.5 -19 -30.5c-2.66699 -12.667 -0.666992 -23.167 6 -31.5s15.667 -12.5 27 -12.5s21.833 4.16699 31.5 12.5s15.834 18.833 18.501 31.5z
M196.999 639c2.66699 12 0.830078 22.167 -5.50293 30.5s-15.166 12.5 -26.499 12.5s-22 -4.16699 -32 -12.5s-16.333 -18.5 -19 -30.5c-3.33301 -12.667 -1.66602 -23.167 5.00098 -31.5s16 -12.5 28 -12.5c11.333 0 21.833 4.16699 31.5 12.5s15.834 18.833 18.501 31.5z
M143.995 0l112 525h-83l-112 -525h83z" />
    <glyph glyph-name="eth" unicode="&#xf0;" horiz-adv-x="684" 
d="M779 577l15 70h-84l12 53h-83l-12 -53h-83l-15 -70h83l-30 -147c-34 74.667 -92.667 112 -176 112c-71.333 0 -137 -28 -197 -84c-58.667 -54.667 -96 -120 -112 -196c-16.667 -76.667 -4.66699 -142.334 36 -197.001c40 -55.333 97 -83 171 -83
c71.333 0 139.333 27.667 204 83c64 54.667 104.333 120.334 121 197.001l67 315h83zM546 262c-10.667 -52 -38.332 -97.334 -82.999 -136.001c-44 -37.333 -91 -56 -141 -56c-52 0 -91.333 18.667 -118 56c-27.333 36.667 -35.333 82 -24 136c12 54 39.333 99.333 82 136
c42.667 38 90 57 142 57c50 0 89 -19 117 -57c27.333 -37.333 35.666 -82.666 24.999 -135.999z" />
    <glyph glyph-name="ntilde" unicode="&#xf1;" horiz-adv-x="547" 
d="M547 672l-39.999 26c-14 -28 -26.667 -42 -38 -42c-13.333 0 -30.333 7.66699 -51 23c-20 16 -37 24 -51 24c-28.667 0 -56 -25.667 -82 -77l41 -27c12.667 28 25 42 37 42c13.333 0 30.333 -7.66699 51 -23c21.333 -15.333 38.666 -23 51.999 -23
c29.333 0 56.333 25.667 81 77zM493.001 0l68 315c12 60.667 4.66699 113 -22 157c-30 46.667 -73.333 70 -130 70c-60 0 -115.333 -25.667 -166 -77l13 60h-83l-112 -525h83l68 315c8 39.333 28 72.333 60 99c31.333 27.333 65.333 41 102 41c36 0 64.667 -13.667 86 -41
c20 -28 26 -61 18 -99l-68 -315h83z" />
    <glyph glyph-name="ograve" unicode="&#xf2;" horiz-adv-x="613" 
d="M458 595l-28 105h-83l62 -105h49zM629 262c16 77.333 3.66699 143.333 -37 198s-97 82 -169 82c-74 0 -142.667 -27.333 -206 -82c-64 -54 -104 -120 -120 -198c-16.667 -76.667 -4.66699 -142.334 36 -197.001c40 -55.333 97 -83 171 -83
c71.333 0 139.333 27.667 204 83c64 54.667 104.333 120.334 121 197.001zM546 262c-10.667 -52 -38.332 -97.334 -82.999 -136.001c-44 -37.333 -91 -56 -141 -56c-52 0 -91.333 18.667 -118 56c-27.333 36.667 -35.333 82 -24 136c12 54 39.333 99.333 82 136
c42.667 38 90 57 142 57c50 0 89 -19 117 -57c27.333 -37.333 35.666 -82.666 24.999 -135.999z" />
    <glyph glyph-name="oacute" unicode="&#xf3;" horiz-adv-x="613" 
d="M563 700h-83l-71 -105h49zM629 262c16 77.333 3.66699 143.333 -37 198s-97 82 -169 82c-74 0 -142.667 -27.333 -206 -82c-64 -54 -104 -120 -120 -198c-16.667 -76.667 -4.66699 -142.334 36 -197.001c40 -55.333 97 -83 171 -83c71.333 0 139.333 27.667 204 83
c64 54.667 104.333 120.334 121 197.001zM546 262c-10.667 -52 -38.332 -97.334 -82.999 -136.001c-44 -37.333 -91 -56 -141 -56c-52 0 -91.333 18.667 -118 56c-27.333 36.667 -35.333 82 -24 136c12 54 39.333 99.333 82 136c42.667 38 90 57 142 57c50 0 89 -19 117 -57
c27.333 -37.333 35.666 -82.666 24.999 -135.999z" />
    <glyph glyph-name="ocircumflex" unicode="&#xf4;" horiz-adv-x="613" 
d="M534 595l-45 105h-66l-89 -105h50l63 63l37 -63h50zM629 262c16 77.333 3.66699 143.333 -37 198s-97 82 -169 82c-74 0 -142.667 -27.333 -206 -82c-64 -54 -104 -120 -120 -198c-16.667 -76.667 -4.66699 -142.334 36 -197.001c40 -55.333 97 -83 171 -83
c71.333 0 139.333 27.667 204 83c64 54.667 104.333 120.334 121 197.001zM546 262c-10.667 -52 -38.332 -97.334 -82.999 -136.001c-44 -37.333 -91 -56 -141 -56c-52 0 -91.333 18.667 -118 56c-27.333 36.667 -35.333 82 -24 136c12 54 39.333 99.333 82 136
c42.667 38 90 57 142 57c50 0 89 -19 117 -57c27.333 -37.333 35.666 -82.666 24.999 -135.999z" />
    <glyph glyph-name="otilde" unicode="&#xf5;" horiz-adv-x="613" 
d="M576 672l-40.002 26c-14 -28 -26.667 -42 -38 -42c-13.333 0 -30.333 7.66699 -51 23c-20 16 -37 24 -51 24c-29.333 0 -56.666 -25.667 -81.999 -77l41 -27c12.667 28 25.334 42 38.001 42s29.334 -7.66699 50.001 -23c21.333 -15.333 38.666 -23 51.999 -23
c29.333 0 56.333 25.667 81 77zM628.998 262c16 77.333 3.66699 143.333 -37 198s-97 82 -169 82c-74 0 -142.667 -27.333 -206 -82c-64 -54 -104 -120 -120 -198c-16.667 -76.667 -4.66699 -142.334 36 -197.001c40 -55.333 97 -83 171 -83c71.333 0 139.333 27.667 204 83
c64 54.667 104.333 120.334 121 197.001zM545.998 262c-10.667 -52 -38.332 -97.334 -82.999 -136.001c-44 -37.333 -91 -56 -141 -56c-52 0 -91.333 18.667 -118 56c-27.333 36.667 -35.333 82 -24 136c12 54 39.333 99.333 82 136c42.667 38 90 57 142 57
c50 0 89 -19 117 -57c27.333 -37.333 35.666 -82.666 24.999 -135.999z" />
    <glyph glyph-name="odieresis" unicode="&#xf6;" horiz-adv-x="613" 
d="M567 639c2.66699 12 0.832031 22.167 -5.50098 30.5s-15.166 12.5 -26.499 12.5s-22 -4.16699 -32 -12.5s-16.333 -18.5 -19 -30.5c-2.66699 -12.667 -0.833984 -23.167 5.49902 -31.5s15.5 -12.5 27.5 -12.5c11.333 0 21.833 4.16699 31.5 12.5
s15.834 18.833 18.501 31.5zM400.998 639c2.66699 12 0.833008 22.167 -5.5 30.5s-15.166 12.5 -26.499 12.5s-22 -4.16699 -32 -12.5s-16.333 -18.5 -19 -30.5c-3.33301 -12.667 -1.66602 -23.167 5.00098 -31.5s16 -12.5 28 -12.5c11.333 0 21.666 4.16699 30.999 12.5
s15.666 18.833 18.999 31.5zM628.997 262c16 77.333 3.66699 143.333 -37 198s-97 82 -169 82c-74 0 -142.667 -27.333 -206 -82c-64 -54 -104 -120 -120 -198c-16.667 -76.667 -4.66699 -142.334 36 -197.001c40 -55.333 97 -83 171 -83c71.333 0 139.333 27.667 204 83
c64 54.667 104.333 120.334 121 197.001zM545.997 262c-10.667 -52 -38.332 -97.334 -82.999 -136.001c-44 -37.333 -91 -56 -141 -56c-52 0 -91.333 18.667 -118 56c-27.333 36.667 -35.333 82 -24 136c12 54 39.333 99.333 82 136c42.667 38 90 57 142 57
c50 0 89 -19 117 -57c27.333 -37.333 35.666 -82.666 24.999 -135.999z" />
    <glyph glyph-name="divide" unicode="&#xf7;" horiz-adv-x="456" 
d="M385 464c3.33301 17.333 0.666992 31.833 -8 43.5s-21.334 17.5 -38.001 17.5c-16 0 -30.833 -5.83301 -44.5 -17.5s-22.167 -26.167 -25.5 -43.5c-4 -17.333 -1.66699 -32 7 -44s21 -18 37 -18c16.667 0 31.834 6 45.501 18s22.5 26.667 26.5 44zM442.001 227l15 70
h-333l-15 -70h333zM299.001 61c3.33301 17.333 0.667969 31.833 -7.99902 43.5s-21 17.5 -37 17.5c-16.667 0 -31.834 -5.83301 -45.501 -17.5s-22.167 -26.167 -25.5 -43.5s-0.833008 -31.833 7.5 -43.5s20.5 -17.5 36.5 -17.5c16.667 -0 32 5.83301 46 17.5
s22.667 26.167 26 43.5z" />
    <glyph glyph-name="oslash" unicode="&#xf8;" horiz-adv-x="613" 
d="M699 499l-18.001 25.999l-87 -66c-41.333 55.333 -98.333 83 -171 83c-74 0 -142.667 -27.333 -206 -82c-64 -54 -104 -120 -120 -198c-6.66699 -31.333 -8.66699 -61 -6 -89s10.667 -54.333 24 -79l-90 -68l20 -26l86 66c40.667 -56 98.334 -84 173.001 -84
c71.333 0 139.333 27.667 204 83c64 54.667 104.333 120.334 121 197.001c12.667 62.667 6.66699 119 -18 169zM518.999 401.999l-329 -251c-15.333 35.333 -18.666 72.333 -9.99902 111c12 54 39.333 99.333 82 136c42.667 38 90 57 142 57
c47.333 0 85.666 -17.667 114.999 -53zM545.999 261.999c-10.667 -52 -38.3311 -97.334 -82.998 -136.001c-44 -37.333 -91 -56 -141 -56s-88.667 17.667 -116 53l329 251c7.33301 -17.333 12.166 -35.166 14.499 -53.499s1.16602 -37.833 -3.50098 -58.5z" />
    <glyph glyph-name="ugrave" unicode="&#xf9;" horiz-adv-x="547" 
d="M421 595l-28 105h-83l61 -105h50zM486 0l112.001 525h-84l-67 -315c-8 -39.333 -28 -72.333 -60 -99c-32.667 -27.333 -67 -41 -103 -41c-36.667 0 -65 13.667 -85 41c-20 26.667 -26 59.667 -18 99l67 315h-83l-67 -315c-12.667 -59.333 -5.33398 -112 21.999 -158
c29.333 -46.667 72.333 -70 129 -70c60.667 0 116 25.667 166 77l-13 -59h84z" />
    <glyph glyph-name="uacute" unicode="&#xfa;" horiz-adv-x="547" 
d="M526 700h-83l-72 -105h50zM486 0l112.001 525h-84l-67 -315c-8 -39.333 -28 -72.333 -60 -99c-32.667 -27.333 -67 -41 -103 -41c-36.667 0 -65 13.667 -85 41c-20 26.667 -26 59.667 -18 99l67 315h-83l-67 -315c-12.667 -59.333 -5.33398 -112 21.999 -158
c29.333 -46.667 72.333 -70 129 -70c60.667 0 116 25.667 166 77l-13 -59h84z" />
    <glyph glyph-name="ucircumflex" unicode="&#xfb;" horiz-adv-x="547" 
d="M496 595l-45 105h-66l-88 -105h49l63 63l37 -63h50zM486 0l112.001 525h-84l-67 -315c-8 -39.333 -28 -72.333 -60 -99c-32.667 -27.333 -67 -41 -103 -41c-36.667 0 -65 13.667 -85 41c-20 26.667 -26 59.667 -18 99l67 315h-83l-67 -315
c-12.667 -59.333 -5.33398 -112 21.999 -158c29.333 -46.667 72.333 -70 129 -70c60.667 0 116 25.667 166 77l-13 -59h84z" />
    <glyph glyph-name="udieresis" unicode="&#xfc;" horiz-adv-x="547" 
d="M529 639c3.33301 12 1.83105 22.167 -4.50195 30.5s-15.166 12.5 -26.499 12.5c-12 0 -23 -4.16699 -33 -12.5s-16.333 -18.5 -19 -30.5c-2.66699 -12.667 -0.666992 -23.167 6 -31.5s15.667 -12.5 27 -12.5s21.833 4.16699 31.5 12.5s15.834 18.833 18.501 31.5z
M362.998 639c2.66699 12 0.999023 22.167 -5.00098 30.5s-14.667 12.5 -26 12.5c-12 0 -23 -4.16699 -33 -12.5s-16.333 -18.5 -19 -30.5c-2.66699 -12.667 -0.666992 -23.167 6 -31.5s15.667 -12.5 27 -12.5s21.833 4.16699 31.5 12.5s15.834 18.833 18.501 31.5z
M485.997 0l112.001 525h-84l-67 -315c-8 -39.333 -28 -72.333 -60 -99c-32.667 -27.333 -67 -41 -103 -41c-36.667 0 -65 13.667 -85 41c-20 26.667 -26 59.667 -18 99l67 315h-83l-67 -315c-12.667 -59.333 -5.33398 -112 21.999 -158c29.333 -46.667 72.333 -70 129 -70
c60.667 0 116 25.667 166 77l-13 -59h84z" />
    <glyph glyph-name="yacute" unicode="&#xfd;" horiz-adv-x="533" 
d="M523 700h-84l-72 -105h50zM625 525h-90l-245 -409l-69 409h-89l89 -525l-48 -81c-9.33301 -16 -24 -24 -44 -24c-11.333 0 -24.333 3 -39 9l-19 -88c16 -6 29.333 -9 40 -9c57.333 0 102 27.667 134 83z" />
    <glyph glyph-name="thorn" unicode="&#xfe;" horiz-adv-x="634" 
d="M649 262c16 76 5.99902 141.333 -30.001 196c-35.333 56 -88.666 84 -159.999 84c-82.667 0 -157 -37.333 -223 -112l57 270h-83l-186 -875h83l57 269c35.333 -74.667 94 -112 176 -112c72 0 137.667 28.333 197 85c30 28 54.167 58 72.5 90s31.5 67 39.5 105z
M565.999 262c-10.667 -52 -38 -97.3311 -82 -135.998c-44 -37.333 -91.333 -56 -142 -56c-51.333 0 -90.333 18.667 -117 56c-28 37.333 -36.333 82.666 -25 135.999c12 53.333 39.667 98.666 83 135.999c42.667 38 89.667 57 141 57c50.667 0 90 -19 118 -57
c26.667 -38 34.667 -83.333 24 -136z" />
    <glyph glyph-name="ydieresis" unicode="&#xff;" horiz-adv-x="533" 
d="M527 639c2.66699 12 1.00098 22.167 -4.99902 30.5s-15 12.5 -27 12.5c-11.333 0 -22 -4.16699 -32 -12.5s-16.333 -18.5 -19 -30.5c-3.33301 -12.667 -1.66602 -23.167 5.00098 -31.5s16 -12.5 28 -12.5c11.333 0 21.666 4.16699 30.999 12.5s15.666 18.833 18.999 31.5
zM360.001 639c3.33301 12 2.00098 22.167 -3.99902 30.5s-15 12.5 -27 12.5s-22.833 -4.16699 -32.5 -12.5s-16.167 -18.5 -19.5 -30.5c-2.66699 -12.667 -0.666992 -23.167 6 -31.5s16 -12.5 28 -12.5c11.333 0 21.666 4.16699 30.999 12.5s15.333 18.833 18 31.5z
M625.002 525h-90l-245 -409l-69 409h-89l89 -525l-48 -81c-9.33301 -16 -24 -24 -44 -24c-11.333 0 -24.333 3 -39 9l-19 -88c16 -6 29.333 -9 40 -9c57.333 0 102 27.667 134 83z" />
    <glyph glyph-name="OE" unicode="&#x152;" horiz-adv-x="1100" 
d="M1039 0l18.002 87h-299l46 219h216l19 88h-216l47 218h299l18 88h-382l-24 -112c-50.667 86 -130.334 129 -239.001 129c-96.667 0 -186.667 -35.667 -270 -107c-82.667 -71.333 -135 -158 -157 -260c-10.667 -51.333 -12.334 -98.5 -5.00098 -141.5
s24.666 -82.5 51.999 -118.5c52 -72 127 -108 225 -108c106.667 0 204.334 43.333 293.001 130l-24 -112h383zM731.002 350c-17.333 -77.333 -57.668 -143.333 -121.001 -198s-131.666 -82 -204.999 -82c-72 0 -129 27.333 -171 82c-40.667 54 -52.334 120 -35.001 198
c16 76.667 55.667 142.667 119 198c63.333 54.667 132 82 206 82c72.667 0 129.334 -27.333 170.001 -82s53 -120.667 37 -198z" />
    <glyph glyph-name="oe" unicode="&#x153;" horiz-adv-x="1062" 
d="M1078 262c16 76 3.66895 142 -36.998 198c-40.667 54.667 -97.334 82 -170.001 82c-46 0 -91.167 -11.5 -135.5 -34.5s-83.166 -54.833 -116.499 -95.5c-16 40.667 -41.333 72.5 -76 95.5s-74.667 34.5 -120 34.5c-74 0 -142.667 -27.333 -206 -82
c-64 -54 -104 -120 -120 -198c-16.667 -76.667 -4.66699 -142.334 36 -197.001c40 -55.333 97 -83 171 -83c45.333 0 90.166 11.667 134.499 35s83.166 55.333 116.499 96c16 -40.667 41.333 -72.667 76 -96s75 -35 121 -35c42 0 83.5 9.83301 124.5 29.5
s77.833 46.834 110.5 81.501l-60 47c-48.667 -46.667 -100.667 -70 -156 -70c-42.667 0 -78 14 -106 42c-26 27.333 -39.667 63 -41 107h441c3.33301 7.33301 5.83301 14.5 7.5 21.5s3.5 14.167 5.5 21.5zM998.002 306h-355.999c19.333 43.333 48.333 79 87 107
c40 28 81.333 42 124 42c41.333 0 75.666 -14 102.999 -42c28 -27.333 42 -63 42 -107zM546.003 262c-10.667 -52 -38.332 -97.334 -82.999 -136.001c-44 -37.333 -91 -56 -141 -56c-52 0 -91.333 18.667 -118 56c-27.333 36.667 -35.333 82 -24 136
c12 54 39.333 99.333 82 136c42.667 38 90 57 142 57c50 0 89 -19 117 -57c27.333 -37.333 35.666 -82.666 24.999 -135.999z" />
    <glyph glyph-name="Scaron" unicode="&#x160;" horiz-adv-x="639" 
d="M605 875h-49l-64 -63l-36 63h-50l44 -105h66zM626 189c16.667 82.667 -8.99805 138.998 -76.998 168.998l-99 22.5l-99 22.5c-71.333 19.333 -101 56 -89 110c8 38.667 33.667 69.334 77 92.001c17.333 8 35.333 14.167 54 18.5s38.667 6.5 60 6.5
c40 0 74.333 -8.66699 103 -26c34 -20.667 47 -51 39 -91h83c12.667 62.667 -4 113.667 -50 153c-41.333 34 -93.333 51 -156 51c-64 0 -123.333 -17 -178 -51c-64 -38.667 -102.333 -89.667 -115 -153c-18 -85.333 7.33301 -143 76 -173l98.5 -22l99.5 -22
c71.333 -18 101 -53.667 89 -107c-8.66699 -42 -36.667 -73.667 -84 -95c-36 -16 -77.333 -24 -124 -24c-45.333 0 -83 8 -113 24c-39.333 21.333 -54 53 -44 95h-83c-14 -66 4.66699 -118.333 56 -157c43.333 -33.333 98.666 -50 165.999 -50
c34 0 66.167 4.16699 96.5 12.5s60.166 20.5 89.499 36.5c68.667 40.667 110 93.334 124 158.001z" />
    <glyph glyph-name="scaron" unicode="&#x161;" horiz-adv-x="522" 
d="M509 700h-50l-63 -63l-36 63h-50l44 -105h67zM500 144c14 64.667 -4.66504 108.664 -55.998 131.997c-4.66699 2 -54.667 13.667 -150 35c-53.333 11.333 -76.333 34.666 -69 69.999c6 26.667 24.333 46.334 55 59.001c22.667 10 48.667 15 78 15
c15.333 0 28.666 -1.16699 39.999 -3.5s22 -6.16602 32 -11.499c24.667 -13.333 34 -33 28 -59h83c11.333 50.667 -2.33398 91 -41.001 121c-30.667 26.667 -72 40 -124 40c-50 0 -97.333 -13.333 -142 -40c-50 -30.667 -80.667 -71 -92 -121
c-12.667 -65.333 6 -109.666 56 -132.999c4 -1.33301 18.333 -4.83301 43 -10.5l106 -24.5c54 -11.333 77 -34.333 69 -69c-10 -49.333 -56.667 -74 -140 -74c-32 0 -57.667 4.33301 -77 13c-27.333 12.667 -38 33 -32 61h-83c-11.333 -51.333 3.33398 -92.333 44.001 -123
c35.333 -26 78.333 -39 129 -39c26.667 0 52 3.33301 76 10s47.333 16.334 70 29.001c53.333 30.667 85.666 71.667 96.999 123z" />
    <glyph glyph-name="Ydieresis" unicode="&#x178;" horiz-adv-x="612" 
d="M604 814c2.66699 12 0.667969 22.167 -5.99902 30.5s-15.667 12.5 -27 12.5s-21.833 -4.16699 -31.5 -12.5s-15.834 -18.5 -18.501 -30.5c-3.33301 -12.667 -1.83301 -23.167 4.5 -31.5s15.5 -12.5 27.5 -12.5c11.333 0 21.833 4.16699 31.5 12.5
s16.167 18.833 19.5 31.5zM437.001 814c3.33301 12 1.66602 22.167 -5.00098 30.5s-15.667 12.5 -27 12.5c-12 0 -22.667 -4.16699 -32 -12.5s-15.666 -18.5 -18.999 -30.5c-2.66699 -12.667 -0.833984 -23.167 5.49902 -31.5s15.5 -12.5 27.5 -12.5
c11.333 0 21.833 4.16699 31.5 12.5s15.834 18.833 18.501 31.5zM740.001 700h-102l-241 -273l-125 273h-103l166 -365l-71 -335h83l71 335z" />
    <glyph glyph-name="Zcaron" unicode="&#x17d;" horiz-adv-x="639" 
d="M605 875h-49l-64 -63l-36 63h-50l44 -105h66zM585 0l19 87h-419l531 525l18 88h-532l-18 -88h419l-531 -525l-19 -87h532z" />
    <glyph glyph-name="zcaron" unicode="&#x17e;" horiz-adv-x="556" 
d="M526 700h-50l-63 -63l-37 63h-50l45 -105h66zM502 0l19 87h-332l406 350l19 88h-449l-19 -88h332l-406 -350l-19 -87h449z" />
    <glyph glyph-name="florin" unicode="&#x192;" horiz-adv-x="492" 
d="M600 700c-15.333 11.333 -34.667 17 -58 17c-35.333 0 -69 -13 -101 -39c-33.333 -26 -56.333 -56.667 -69 -92l-66 -192h-83l-31 -88h83l-127 -367c-4.66699 -12 -12.5 -22.333 -23.5 -31s-22.167 -13 -33.5 -13c-9.33301 0 -16.333 3.33301 -21 10l-66 -79
c14.667 -12.667 33.667 -19 57 -19c33.333 0 67.333 13.333 102 40c33.333 25.333 56 56 68 92l127 367h83l31 88h-83l66 192c4.66699 12 12.5 22.5 23.5 31.5s22.167 13.5 33.5 13.5c7.33301 0 15 -3.33301 23 -10z" />
    <glyph glyph-name="circumflex" unicode="&#x2c6;" horiz-adv-x="323" 
d="M388 595l-45 105h-67l-88 -105h50l63 63l37 -63h50z" />
    <glyph glyph-name="caron" unicode="&#x2c7;" horiz-adv-x="323" 
d="M409 700h-49l-63 -63l-37 63h-50l45 -105h66z" />
    <glyph glyph-name="breve" unicode="&#x2d8;" horiz-adv-x="1029" 
d="M923 571v128h-270v-201h139v-47h43v138h-43v-47h-94v113h176l7 -84h42zM964 98c0 48 -24.668 80.002 -74.001 96.002c34 16.667 51 43.667 51 81c0 11.333 -1.66699 21.166 -5 29.499s-7.66602 16.166 -12.999 23.499h3v128h-43v-85h-270v171h-210v114h48v44h-378l-8 -96
h44v52h104v-285h-127v-371h750c34 0 62.667 8 86 24c28 18 42 42.667 42 74zM916.999 105.002c0 -26.667 -13 -44.333 -39 -53c-7.33301 -3.33301 -17 -5.66602 -29 -6.99902s-26 -2 -42 -2h-123l-118 285h242c23.333 0 42 -3.66699 56 -11c20 -9.33301 30 -24.333 30 -45
c0 -17.333 -8.66699 -32 -26 -44c-7.33301 -4.66699 -15.333 -8.33398 -24 -11.001s-18 -4 -28 -4h-103v-43h94c73.333 0 110 -21.667 110 -65zM634.999 44.0029h-505v284h128v328h98v-157h212v-127h-48v-44h1l69 -170h-175l-19 -43h210zM411.999 211.003v162h-56v-162h56z
" />
    <glyph glyph-name="ring" unicode="&#x2da;" horiz-adv-x="306" 
d="M373 604c2.66699 13.333 2.83301 25.833 0.5 37.5s-6.66602 21.834 -12.999 30.501s-14.5 15.5 -24.5 20.5s-21.333 7.5 -34 7.5s-25.167 -2.5 -37.5 -7.5s-23.5 -11.833 -33.5 -20.5s-18.667 -18.834 -26 -30.501s-12.333 -24.167 -15 -37.5
c-3.33301 -13.333 -3.83301 -26 -1.5 -38s6.83301 -22.333 13.5 -31s15 -15.5 25 -20.5s21.333 -7.5 34 -7.5s25 2.5 37 7.5s23 11.833 33 20.5s18.667 19 26 31s12.666 24.667 15.999 38zM338.999 604c-3.33301 -17.333 -11.833 -32 -25.5 -44s-28.5 -18 -44.5 -18
c-16.667 0 -29.5 6 -38.5 18s-11.5 26.667 -7.5 44c3.33301 17.333 12 31.833 26 43.5s29.333 17.5 46 17.5c16 0 28.167 -5.83301 36.5 -17.5s10.833 -26.167 7.5 -43.5z" />
    <glyph glyph-name="tilde" unicode="&#x2dc;" horiz-adv-x="374" 
d="M456 669l-40 27c-14 -28 -26.333 -42 -37 -42c-14 0 -31.667 7.33301 -53 22c-20 16 -36.667 24 -50 24c-30 0 -57.667 -25.667 -83 -77l42 -26c12.667 28 25 42 37 42c14 0 30.667 -8 50 -24c11.333 -7.33301 21 -13 29 -17s15.667 -6 23 -6c28.667 0 56 25.667 82 77z
" />
    <glyph glyph-name="endash" unicode="&#x2013;" horiz-adv-x="373" 
d="M359 227l15 70h-250l-15 -70h250z" />
    <glyph glyph-name="emdash" unicode="&#x2014;" horiz-adv-x="539" 
d="M525 227l15 70h-416l-15 -70h416z" />
    <glyph glyph-name="quoteleft" unicode="&#x2018;" horiz-adv-x="240" 
d="M275 455l25 122h-83c4.66699 24.667 14 45.5 28 62.5s27.667 25.5 41 25.5l7 35c-23.333 0 -45.333 -12 -66 -36s-35 -53 -43 -87l-26 -122h117z" />
    <glyph glyph-name="quoteright" unicode="&#x2019;" horiz-adv-x="240" 
d="M300 577l26.001 122.999h-116l-26 -123h83c-5.33301 -24 -14.5 -44.5 -27.5 -61.5s-26.5 -25.5 -40.5 -25.5l-7 -35c23.333 0 45 12 65 36c21.333 22.667 35.666 51.334 42.999 86.001z" />
    <glyph glyph-name="quotesinglbase" unicode="&#x201a;" horiz-adv-x="240" 
d="M178 0l26.001 122h-117l-26 -122h83c-5.33301 -24 -14.5 -44.667 -27.5 -62s-26.5 -26 -40.5 -26l-8 -35c22.667 0 45 12 67 36c21.333 23.333 35.666 52.333 42.999 87z" />
    <glyph glyph-name="quotedblleft" unicode="&#x201c;" horiz-adv-x="423" 
d="M458 455l24.999 121.999h-83c4.66699 24.667 14 45.5 28 62.5s27.667 25.5 41 25.5l7 35c-22.667 0 -45 -12 -67 -36c-10 -12 -18.667 -25.167 -26 -39.5s-12.666 -30.166 -15.999 -47.499l-26 -122h117zM274.999 454.999l25 122h-83c4.66699 24.667 14 45.5 28 62.5
s27.667 25.5 41 25.5l7 35c-23.333 0 -45.333 -12 -66 -36s-35 -53 -43 -87l-26 -122h117z" />
    <glyph glyph-name="quotedblright" unicode="&#x201d;" horiz-adv-x="423" 
d="M483 577l26 122.999h-116l-26 -123h83c-5.33301 -24 -14.666 -44.5 -27.999 -61.5s-27 -25.5 -41 -25.5l-7 -35c24 0 46 12 66 36c21.333 22.667 35.666 51.334 42.999 86.001zM300 576.999l26.001 122.999h-116l-26 -123h83c-5.33301 -24 -14.5 -44.5 -27.5 -61.5
s-26.5 -25.5 -40.5 -25.5l-7 -35c23.333 0 45 12 65 36c21.333 22.667 35.666 51.334 42.999 86.001z" />
    <glyph glyph-name="quotedblbase" unicode="&#x201e;" horiz-adv-x="423" 
d="M360 0l27 122h-117l-26 -122h83c-5.33301 -24 -14.5 -44.667 -27.5 -62s-26.5 -26 -40.5 -26l-8 -35c22.667 0 45 12 67 36c20.667 24 34.667 53 42 87zM178 0l26.001 122h-117l-26 -122h83c-5.33301 -24 -14.5 -44.667 -27.5 -62s-26.5 -26 -40.5 -26l-8 -35
c22.667 0 45 12 67 36c21.333 23.333 35.666 52.333 42.999 87z" />
    <glyph glyph-name="dagger" unicode="&#x2020;" horiz-adv-x="464" 
d="M495 437l19 88h-128l37 175h-84l-36 -175h-130l-19 -88h129l-130 -612h83l131 612h128z" />
    <glyph glyph-name="daggerdbl" unicode="&#x2021;" horiz-adv-x="464" 
d="M440 175l18 87h-128l37 175h128l19 88h-128l37 175h-84l-36 -175h-130l-19 -88h129l-36 -175h-130l-18 -87h129l-75 -350h83l75 350h129z" />
    <glyph glyph-name="bullet" unicode="&#x2022;" horiz-adv-x="423" 
d="M416 262c8.66699 43.333 2.00098 80.667 -19.999 112c-22.667 30.667 -54.667 46 -96 46c-40.667 0 -79 -15.333 -115 -46c-36 -31.333 -58.667 -68.666 -68 -111.999c-9.33301 -42.667 -2.33301 -79.667 21 -111c22.667 -30.667 54.667 -46 96 -46
c40.667 0 79 15 115 45c35.333 31.333 57.666 68.666 66.999 111.999z" />
    <glyph glyph-name="ellipsis" unicode="&#x2026;" horiz-adv-x="672" 
d="M623 61c3.33301 17.333 0.832031 31.833 -7.50098 43.5s-20.833 17.5 -37.5 17.5c-16 0 -31 -5.83301 -45 -17.5s-22.667 -26.167 -26 -43.5s-0.666016 -31.833 8.00098 -43.5s21 -17.5 37 -17.5s31 5.83301 45 17.5s22.667 26.167 26 43.5zM406.999 61
c3.33301 17.333 0.832031 31.833 -7.50098 43.5s-20.833 17.5 -37.5 17.5c-16 0 -31.167 -5.83301 -45.5 -17.5s-23.166 -26.167 -26.499 -43.5s-0.5 -31.833 8.5 -43.5s21.5 -17.5 37.5 -17.5s31 5.83301 45 17.5s22.667 26.167 26 43.5zM190.998 61
c3.33301 17.333 0.664062 31.833 -8.00293 43.5s-21 17.5 -37 17.5s-31.167 -5.83301 -45.5 -17.5s-23.166 -26.167 -26.499 -43.5s-0.666016 -31.833 8.00098 -43.5s21.334 -17.5 38.001 -17.5c16 -0 31 5.83301 45 17.5s22.667 26.167 26 43.5z" />
    <glyph glyph-name="perthousand" unicode="&#x2030;" horiz-adv-x="1212" 
d="M1184 157c10 48.667 2.33398 89.999 -22.999 123.999c-24 34 -59.333 51 -106 51c-46 0 -89 -17 -129 -51c-38.667 -33.333 -63.667 -74.666 -75 -123.999c-4.66699 -24 -5.33398 -46.333 -2.00098 -67s11.333 -39.667 24 -57c26 -34 62 -51 108 -51
c45.333 0 88 17 128 51c40 34.667 65 76 75 124zM801.001 156.999c10.667 48 3.33203 89.333 -22.001 124c-25.333 34 -60.666 51 -105.999 51c-46 0 -89.333 -17 -130 -51c-39.333 -34.667 -64 -76 -74 -124c-5.33301 -24 -6.33301 -46.333 -3 -67
s11.666 -39.667 24.999 -57c24.667 -34 60.334 -51 107.001 -51c46 0 88.667 17 128 51c41.333 34.667 66.333 76 75 124zM891.999 699.999h-84l-721 -700h83zM508.999 541.999c10 48.667 2.33301 90 -23 124s-60.666 51 -105.999 51c-47.333 0 -90.333 -17 -129 -51
c-40.667 -34.667 -65.334 -76 -74.001 -124c-11.333 -48.667 -4 -90 22 -124c24 -34 59.333 -51 106 -51c46 0 89 17 129 51c40 34.667 65 76 75 124zM1117 156.999c-6 -28 -20.665 -52.667 -43.998 -74c-24.667 -20.667 -50.334 -31 -77.001 -31
c-28 0 -49.667 10.333 -65 31c-14.667 20 -19 44.667 -13 74c6 30 20.667 55 44 75c24 20 50 30 78 30c27.333 0 48.666 -10 63.999 -30c14.667 -20.667 19 -45.667 13 -75zM735.001 156.999c-6 -28.667 -20.998 -53.335 -44.998 -74.002s-49.667 -31 -77 -31
c-28 0 -49.333 10.333 -64 31c-15.333 20.667 -20 45.334 -14 74.001c3.33301 14.667 8.66602 28.334 15.999 41.001s17 24 29 34c24 20 50 30 78 30c27.333 0 48.666 -10 63.999 -30c14.667 -20.667 19 -45.667 13 -75zM443.003 541.998
c-6.66699 -29.333 -21.667 -54.001 -45 -74.001c-24.667 -20.667 -50.667 -31 -78 -31c-26.667 0 -47.667 10.333 -63 31c-15.333 21.333 -20 46 -14 74c6 28.667 21.333 53.334 46 74.001c22.667 20.667 48 31 76 31s49.667 -10 65 -30c14.667 -20.667 19 -45.667 13 -75z
" />
    <glyph glyph-name="guilsinglleft" unicode="&#x2039;" horiz-adv-x="355" 
d="M333 189l-136 115l185 114l-23 59l-226 -138l-15 -70l167 -139z" />
    <glyph glyph-name="guilsinglright" unicode="&#x203a;" horiz-adv-x="355" 
d="M350 269l15 70l-166 138l-49 -59l138 -114l-187 -115l25 -59z" />
    <glyph glyph-name="Euro" unicode="&#x20ac;" horiz-adv-x="757" 
d="M833 647c-50.667 46.667 -114.336 70.002 -191.003 70.002c-76 0 -149.333 -23.333 -220 -70c-71.333 -48 -126.666 -109 -165.999 -183h-71l-40 -70h82c-3.33301 -7.33301 -5.66602 -14.666 -6.99902 -21.999s-3 -14.666 -5 -21.999l-4 -22l-4 -22h-56l-40 -70h96
c8 -74 37.667 -135.333 89 -184c50.667 -46.667 114 -70 190 -70c62.667 0 125 17 187 51l23 107c-62 -46.667 -125.667 -70 -191 -70c-52 0 -97.333 15 -136 45c-37.333 31.333 -61.333 71.666 -72 120.999h307l38 70h-351c0.666992 7.33301 1.66699 14.666 3 21.999l4 22
c2 7.33301 3.83301 14.666 5.5 21.999s4.16699 14.666 7.5 21.999h381l39 70h-385c32 50 73 90 123 120c50.667 30.667 102.334 46 155.001 46c66 0 119.667 -23.333 161 -70z" />
    <glyph glyph-name="trademark" unicode="&#x2122;" horiz-adv-x="728" 
d="M738 332l77 368h-80l-151 -270l-35 270h-339l-13 -61h108l-64 -307h57l65 307h92l-65 -307h58l53 254l34 -254h57l140 253l-53 -253h59z" />
    <glyph glyph-name="minus" unicode="&#x2212;" horiz-adv-x="456" 
d="M442 227l15 70h-333l-15 -70h333z" />
    <glyph glyph-name=".null" horiz-adv-x="0" 
 />
    <glyph glyph-name="nonmarkingreturn" horiz-adv-x="500" 
 />
    <glyph glyph-name="macron" horiz-adv-x="373" 
d="M444 630l15 70h-249l-15 -70h249z" />
    </font>
</defs>
</svg>
